<?xml version="1.0" standalone="no"?>
<!DOCTYPE svg PUBLIC "-//W3C//DTD SVG 1.1//EN" "http://www.w3.org/Graphics/SVG/1.1/DTD/svg11.dtd" >
<svg xmlns="http://www.w3.org/2000/svg" xmlns:xlink="http://www.w3.org/1999/xlink" version="1.1">
<metadata>
Created by FontForge 20160407 at Sat Nov 12 01:01:32 2016
 By Jimmy Wärting
Copyright (c) 2005-2006 by Joshua Darden, Inc. All rights reserved.
</metadata>
<defs>
<font id="Omnes-Semibold" horiz-adv-x="500" >
  <font-face 
    font-family="Omnes"
    font-weight="700"
    font-stretch="normal"
    units-per-em="1000"
    panose-1="0 0 0 0 0 0 0 0 0 0"
    ascent="800"
    descent="-200"
    x-height="488"
    cap-height="651"
    bbox="-80 -231.251 1090 901"
    underline-thickness="20"
    underline-position="-133"
    stemh="111"
    stemv="140"
    unicode-range="U+0020-FB02"
  />
<missing-glyph 
 />
    <glyph glyph-name=".notdef" 
 />
    <glyph glyph-name="space" unicode=" " horiz-adv-x="170" 
 />
    <glyph glyph-name="exclam" unicode="!" horiz-adv-x="277" 
d="M130 200c-19 0 -28 16 -35 46l-39 321c-12 56 18 89 69 89h25c53 0 83 -33 71 -89l-39 -321c-7 -30 -16 -46 -37 -46h-15zM129 -7c-44 0 -67 22 -67 66v14c0 44 23 66 67 66h17c47 0 68 -22 68 -66v-14c0 -44 -22 -66 -68 -66h-17z" />
    <glyph glyph-name="quotedbl" unicode="&#x22;" horiz-adv-x="430" 
d="M302 355c-21 0 -30 12 -34 36l-29 187c-8 51 14 76 71 76c58 0 80 -25 72 -76l-30 -187c-4 -24 -12 -36 -33 -36h-17zM110 355c-21 0 -29 12 -33 36l-30 187c-8 51 14 76 71 76c58 0 80 -25 72 -76l-29 -187c-5 -24 -13 -36 -34 -36h-17z" />
    <glyph glyph-name="numbersign" unicode="#" horiz-adv-x="679" 
d="M450 148l-47 -153c-1 -3 -8 -5 -16 -5c-23 0 -62 19 -62 65c0 9 2 22 7 36l17 57h-128l-47 -153c-1 -3 -8 -5 -16 -5c-23 0 -62 19 -62 65c0 9 2 22 7 36l18 57h-55c-38 0 -58 14 -58 44v16c0 30 20 45 58 45h87l43 141c1 0 -54 0 -54 0c-38 0 -58 15 -58 45v16
c0 30 20 44 58 44h87l47 153c1 3 8 6 16 6c23 0 62 -20 62 -65c0 -10 -2 -22 -7 -37l-18 -57h129l47 153c1 3 8 6 16 6c23 0 62 -20 62 -65c0 -10 -2 -22 -7 -37l-18 -57h55c39 0 58 -14 58 -44v-15c0 -31 -19 -46 -58 -46h-87l-43 -141h53c39 0 58 -15 58 -44v-16
c0 -31 -19 -45 -58 -45h-86zM382 252c1 0 45 143 45 143h-131l-44 -143h130z" />
    <glyph glyph-name="dollar" unicode="$" horiz-adv-x="561" 
d="M343 647c111 -12 172 -62 172 -113c0 -45 -51 -77 -54 -73c-38 44 -103 77 -169 77c-67 0 -108 -30 -108 -75c0 -52 55 -66 132 -83c92 -20 213 -57 213 -188c0 -101 -70 -171 -187 -189v-39c0 -46 -18 -68 -58 -68h-5c-42 0 -57 21 -57 68v37c-121 13 -190 68 -190 124
c0 43 48 74 52 70c38 -46 112 -84 190 -84c71 0 112 30 112 75c0 55 -62 70 -135 87c-88 19 -204 54 -204 186c0 96 68 165 176 185v37c0 46 17 68 57 68h6c41 0 57 -21 57 -68v-34z" />
    <glyph glyph-name="percent" unicode="%" horiz-adv-x="738" 
d="M182 340c-97 0 -164 63 -164 154v8c0 91 68 155 165 155s163 -63 163 -154v-8c0 -91 -68 -155 -164 -155zM134 -11c-5 -6 -63 14 -63 49c0 17 7 30 27 51l503 570c6 6 63 -12 63 -48c0 -14 -7 -31 -26 -52zM556 -9c-97 0 -164 63 -164 154v8c0 91 68 155 165 155
c96 0 163 -63 163 -154v-8c0 -91 -68 -155 -164 -155zM183 417c38 0 66 28 66 74v15c0 46 -29 74 -67 74c-39 0 -66 -27 -66 -74v-15c0 -46 28 -74 67 -74zM557 69c37 0 66 27 66 73v15c0 46 -29 75 -67 75c-39 0 -66 -28 -66 -75v-15c0 -45 28 -73 67 -73z" />
    <glyph glyph-name="ampersand" unicode="&#x26;" horiz-adv-x="687" 
d="M286 400c67 20 96 51 96 93c0 41 -29 71 -71 71c-46 0 -72 -32 -72 -74c0 -36 17 -62 47 -90zM407 151l-174 154c-52 -21 -87 -55 -87 -109c0 -68 52 -108 126 -108c52 0 99 25 135 63zM353 348l123 -107c17 31 28 63 42 106c19 50 39 67 73 67c42 0 64 -34 63 -38
c-18 -78 -52 -148 -95 -208l131 -114c2 -2 -20 -61 -77 -61c-24 0 -54 8 -84 41l-45 44c-58 -57 -130 -91 -222 -91c-149 0 -243 69 -243 195c0 90 57 150 151 182c-35 34 -59 78 -59 128c0 98 81 168 201 168c109 0 183 -64 183 -156c0 -73 -52 -127 -142 -156z" />
    <glyph glyph-name="quoteright" unicode="&#x2019;" horiz-adv-x="234" 
d="M93 407c-23 -26 -81 -8 -71 32l45 159c10 41 20 61 67 61h14c35 0 57 -20 57 -61v-6c0 -26 -11 -51 -32 -75z" />
    <glyph glyph-name="parenleft" unicode="(" horiz-adv-x="405" 
d="M332 -198c-139 0 -294 178 -294 427c0 243 155 426 294 426c43 0 67 -21 67 -60c0 -24 -19 -44 -24 -46c-127 -31 -196 -162 -196 -320c0 -161 69 -290 196 -321c5 -2 24 -22 24 -46c0 -39 -24 -60 -67 -60z" />
    <glyph glyph-name="parenright" unicode=")" horiz-adv-x="405" 
d="M73 -198c-43 0 -67 21 -67 60c0 24 19 44 24 46c127 31 196 160 196 321c0 158 -69 289 -196 320c-5 2 -24 22 -24 46c0 39 24 60 67 60c139 0 294 -183 294 -426c0 -249 -155 -427 -294 -427z" />
    <glyph glyph-name="asterisk" unicode="*" horiz-adv-x="411" 
d="M157 537l10 84c5 32 17 38 39 38h4c21 0 34 -6 39 -38l8 -84l86 18c31 5 43 -5 49 -25l1 -4c6 -23 4 -35 -24 -49l-79 -36l45 -78c15 -28 6 -43 -10 -54l-3 -2c-15 -10 -31 -14 -53 8l-62 68l-62 -68c-23 -22 -36 -18 -54 -8l-3 2c-18 10 -24 26 -9 54l44 78l-78 36
c-28 14 -30 25 -24 49l1 4c6 22 17 30 48 25z" />
    <glyph glyph-name="plus" unicode="+" horiz-adv-x="536" 
d="M212 206h-126c-40 0 -58 20 -58 50v7c0 29 18 49 58 49h126v129c0 40 21 58 51 58h11c28 0 50 -18 50 -58v-129h126c41 0 58 -20 58 -49v-7c0 -30 -17 -50 -58 -50h-126v-136c0 -40 -22 -58 -50 -58h-11c-30 0 -51 18 -51 58v136z" />
    <glyph glyph-name="comma" unicode="," horiz-adv-x="239" 
d="M83 -110c-24 -26 -81 -9 -72 32l45 159c10 41 21 61 67 61h15c35 0 56 -19 56 -61v-6c0 -24 -8 -47 -32 -75z" />
    <glyph glyph-name="hyphen" unicode="-" horiz-adv-x="428" 
d="M94 180c-38 0 -58 24 -58 54v21c0 30 20 54 58 54h240c38 0 58 -24 58 -54v-21c0 -30 -20 -54 -58 -54h-240z" />
    <glyph glyph-name="period" unicode="." horiz-adv-x="239" 
d="M109 -7c-43 0 -66 22 -66 66v14c0 44 22 66 66 66h18c46 0 68 -22 68 -66v-14c0 -44 -22 -66 -68 -66h-18z" />
    <glyph glyph-name="slash" unicode="/" horiz-adv-x="359" 
d="M70 -209c-30 0 -73 8 -73 56c0 11 3 25 8 42l241 763c0 2 14 5 30 5c29 0 72 -8 72 -56c0 -10 -3 -24 -8 -42l-240 -763c-1 -2 -15 -5 -30 -5z" />
    <glyph glyph-name="zero" unicode="0" horiz-adv-x="643" 
d="M321 -13c-177 0 -283 116 -283 304v64c0 187 108 305 284 305s283 -117 283 -304v-64c0 -187 -107 -305 -284 -305zM322 107c87 0 135 61 135 175v83c0 114 -49 177 -136 177s-134 -61 -134 -176v-83c0 -114 48 -176 135 -176z" />
    <glyph glyph-name="one" unicode="1" horiz-adv-x="391" 
d="M165 466c-17 -11 -36 -18 -58 -18c-52 0 -89 34 -89 83s35 72 39 70c18 -14 36 -22 61 -22c43 0 78 30 85 75h43c43 0 65 -23 65 -68v-525c0 -45 -22 -68 -65 -68h-18c-41 0 -63 23 -63 68v405z" />
    <glyph glyph-name="two" unicode="2" horiz-adv-x="554" 
d="M169 120c100 1 250 1 294 1c50 0 70 -20 70 -56v-6c0 -38 -20 -59 -70 -59h-340c-66 0 -89 15 -89 75v31c0 123 107 184 199 229c80 38 148 63 148 120c0 55 -39 87 -109 87c-83 0 -125 -55 -140 -114c0 -3 -96 -6 -96 68c0 80 86 165 245 165c155 0 243 -76 243 -201
c0 -119 -89 -162 -184 -202c-90 -38 -157 -69 -171 -138z" />
    <glyph glyph-name="three" unicode="3" horiz-adv-x="563" 
d="M405 348c73 22 112 68 112 135c0 114 -91 177 -255 177c-142 0 -232 -69 -232 -137c0 -72 84 -75 85 -69c19 48 61 93 145 93c74 0 118 -31 118 -82c0 -47 -32 -75 -92 -75h-48c-44 0 -67 -16 -67 -50v-8c0 -32 20 -50 69 -50h34c77 0 115 -29 115 -89
c0 -57 -49 -92 -128 -92s-139 35 -160 103c-1 6 -87 4 -87 -70c0 -69 90 -147 248 -147c170 0 268 73 268 196c0 80 -44 138 -125 165z" />
    <glyph glyph-name="four" unicode="4" horiz-adv-x="610" 
d="M154 267h198v280zM481 270h50c45 0 63 -16 63 -53v-5c0 -38 -18 -54 -63 -54h-50v-97c0 -45 -20 -68 -62 -68h-14c-38 0 -59 26 -59 68v97c-116 0 -242 0 -239 0c-52 0 -83 27 -83 63v25c1 26 10 45 31 77l198 276c29 45 49 55 122 55c76 0 106 -25 106 -96v-288z" />
    <glyph glyph-name="five" unicode="5" horiz-adv-x="550" 
d="M168 384c35 14 74 22 118 22c144 0 239 -78 239 -205c0 -131 -100 -214 -263 -214c-152 0 -241 67 -241 126c0 44 56 75 60 70c41 -55 103 -87 178 -87c84 0 135 41 135 105c0 66 -46 104 -129 104c-64 0 -105 -18 -134 -40c-57 2 -87 27 -87 86v214c0 52 23 82 71 82
h314c46 0 69 -19 69 -58v-5c0 -39 -22 -57 -69 -57h-261v-143z" />
    <glyph glyph-name="six" unicode="6" horiz-adv-x="603" 
d="M183 348c38 35 101 64 175 64c130 0 217 -70 217 -194v-5c0 -133 -105 -226 -256 -226c-178 0 -281 121 -281 304v58c0 193 111 311 291 311c143 0 220 -60 220 -125c0 -57 -70 -68 -72 -65c-25 39 -67 73 -138 73c-103 0 -156 -64 -156 -190v-5zM186 254
c5 -98 51 -156 130 -156c68 0 118 42 118 105v5c0 65 -42 101 -117 101c-49 0 -96 -23 -131 -55z" />
    <glyph glyph-name="seven" unicode="7" horiz-adv-x="544" 
d="M367 523l-269 -477c-6 -10 34 -53 82 -53c27 0 54 13 76 52l224 409c18 32 45 74 45 110v9c0 39 -13 74 -96 74c3 0 -347 0 -347 0c-42 0 -65 -17 -65 -57v-9c0 -41 23 -58 65 -58h285z" />
    <glyph glyph-name="eight" unicode="8" horiz-adv-x="600" 
d="M300 94c81 0 126 37 126 95s-48 96 -126 96c-79 0 -126 -38 -126 -96c0 -56 47 -95 126 -95zM300 377c70 0 113 34 113 88c0 53 -42 90 -113 90c-73 0 -113 -36 -113 -90c0 -52 44 -88 113 -88zM159 332c-75 26 -110 76 -110 145c0 110 101 185 252 185
c153 0 247 -72 247 -183c0 -68 -35 -119 -108 -145c87 -27 129 -82 129 -159c0 -112 -105 -187 -270 -187c-169 0 -269 71 -269 187c0 75 43 130 129 157z" />
    <glyph glyph-name="nine" unicode="9" horiz-adv-x="603" 
d="M420 295c-39 -35 -102 -64 -175 -64c-131 0 -217 70 -217 194v4c0 132 105 231 256 231c172 0 280 -114 280 -304v-62c0 -201 -105 -308 -295 -308c-145 0 -218 55 -218 114c0 56 47 74 51 71c35 -40 86 -68 157 -68c110 0 161 57 161 186v6zM417 390
c-4 100 -50 159 -130 159c-68 0 -118 -47 -118 -111v-3c0 -65 42 -101 117 -101c50 0 97 23 131 56z" />
    <glyph glyph-name="colon" unicode=":" horiz-adv-x="255" 
d="M118 298c-44 0 -67 22 -67 66v14c0 44 22 67 67 67h17c46 0 68 -23 68 -67v-14c0 -44 -22 -66 -68 -66h-17zM118 -7c-44 0 -67 22 -67 66v14c0 44 22 66 67 66h17c46 0 68 -22 68 -66v-14c0 -44 -22 -66 -68 -66h-17z" />
    <glyph glyph-name="semicolon" unicode=";" horiz-adv-x="255" 
d="M118 298c-44 0 -67 22 -67 66v14c0 44 22 67 67 67h17c46 0 68 -23 68 -67v-14c0 -44 -22 -66 -68 -66h-17zM91 -110c-24 -26 -81 -9 -71 32l44 159c11 41 21 61 68 61h14c35 0 57 -19 57 -61v-6c0 -24 -9 -47 -33 -75z" />
    <glyph glyph-name="less" unicode="&#x3c;" horiz-adv-x="459" 
d="M179 260l182 92c47 23 60 51 59 77c-1 37 -30 67 -36 65l-304 -165c-23 -12 -42 -32 -42 -70c0 -37 19 -57 42 -70l304 -163c7 -3 35 28 36 65c1 25 -12 54 -59 77z" />
    <glyph glyph-name="equal" unicode="=" horiz-adv-x="536" 
d="M101 318c-41 0 -58 25 -58 55v12c0 29 17 54 58 54h335c40 0 58 -25 58 -54v-12c0 -30 -18 -55 -58 -55h-335zM101 76c-41 0 -58 25 -58 55v12c0 29 17 54 58 54h335c40 0 58 -25 58 -54v-12c0 -30 -18 -55 -58 -55h-335z" />
    <glyph glyph-name="greater" unicode="&#x3e;" horiz-adv-x="458" 
d="M280 260l-182 92c-47 23 -60 51 -59 77c1 37 29 67 36 65l304 -165c23 -12 41 -32 41 -70c0 -37 -18 -57 -41 -70l-304 -163c-7 -3 -36 28 -37 65c0 25 13 54 60 77z" />
    <glyph glyph-name="question" unicode="?" horiz-adv-x="499" 
d="M227 195c-35 0 -60 16 -59 49c4 167 174 142 174 227c0 45 -34 73 -93 73c-84 0 -122 -58 -130 -115c-1 -2 -96 -5 -96 70c0 71 76 161 228 161c141 0 226 -72 226 -179c0 -165 -183 -143 -192 -259c-5 -18 -25 -27 -58 -27zM219 -7c-44 0 -66 22 -66 66v14
c0 43 22 66 66 66h18c45 0 68 -22 68 -66v-14c0 -44 -23 -66 -68 -66h-18z" />
    <glyph glyph-name="at" unicode="@" horiz-adv-x="740" 
d="M421 302v50c-12 22 -33 38 -61 38c-40 0 -66 -29 -66 -74c0 -44 26 -73 65 -73c35 0 62 23 62 59zM424 420c9 35 34 45 57 45c20 0 35 -9 35 -12v-153c0 -49 16 -69 52 -69c43 0 74 43 74 130c0 135 -90 241 -267 241c-162 0 -275 -117 -275 -279
c0 -161 114 -278 279 -278c71 0 131 24 171 56c11 10 21 15 33 15c24 0 39 -36 36 -39c-53 -52 -138 -90 -240 -90c-204 0 -340 137 -340 336c0 197 138 337 336 337c209 0 329 -126 329 -297c0 -127 -58 -197 -164 -197c-55 0 -94 25 -109 62c-17 -39 -54 -63 -98 -63
c-82 0 -133 66 -133 151c0 91 56 152 133 152c39 0 71 -20 91 -48z" />
    <glyph glyph-name="A" unicode="A" horiz-adv-x="656" 
d="M236 275h177c1 0 -88 236 -88 236zM444 165h-236l-40 -104c-18 -51 -50 -68 -81 -68c-41 0 -82 32 -77 45l221 571c8 27 29 44 96 44s86 -17 95 -44l226 -570c5 -12 -36 -46 -80 -46c-32 0 -65 17 -85 70z" />
    <glyph glyph-name="B" unicode="B" horiz-adv-x="637" 
d="M135 0c-48 0 -77 30 -77 82v483c0 52 29 82 77 82h222c146 0 225 -59 225 -166c0 -72 -41 -116 -116 -137c96 -22 140 -82 140 -160c0 -125 -79 -184 -261 -184h-210zM203 375h124c68 0 103 31 103 83c0 53 -31 79 -103 79h-124v-162zM203 110h132c88 0 120 26 120 88
c0 57 -35 83 -119 83c2 0 -133 0 -133 0v-171z" />
    <glyph glyph-name="C" unicode="C" horiz-adv-x="654" 
d="M369 -13c-196 0 -332 138 -332 336c0 197 136 337 334 337c171 0 249 -94 249 -146c0 -64 -83 -80 -85 -75c-32 56 -93 88 -159 88c-108 0 -187 -82 -187 -203s80 -204 189 -204c75 0 136 37 161 98c2 5 88 -11 88 -75c0 -55 -80 -156 -258 -156z" />
    <glyph glyph-name="D" unicode="D" horiz-adv-x="683" 
d="M140 0c-46 0 -82 36 -82 81v484c0 52 33 82 78 82h163c218 0 349 -121 349 -321c0 -201 -135 -326 -353 -326h-155zM204 126h90c129 0 207 73 207 199c0 124 -78 196 -205 196h-92v-395z" />
    <glyph glyph-name="E" unicode="E" horiz-adv-x="600" 
d="M135 0c-48 0 -77 29 -77 81v484c0 52 29 82 77 82h361c46 0 68 -23 68 -62v-5c0 -41 -22 -62 -68 -62h-290v-128h212c48 0 68 -21 68 -57v-4c0 -39 -21 -60 -68 -60h-212v-141h295c46 0 68 -20 68 -58v-6c0 -41 -22 -64 -68 -64h-366z" />
    <glyph glyph-name="F" unicode="F" horiz-adv-x="556" 
d="M120 -4c-40 0 -62 30 -62 82v487c0 52 29 82 77 82h334c46 0 68 -21 68 -59v-6c0 -41 -22 -61 -68 -61h-266v-161h192c47 0 68 -20 68 -57v-3c0 -39 -21 -60 -68 -60h-187v-176c0 -45 -22 -68 -65 -68h-23z" />
    <glyph glyph-name="G" unicode="G" horiz-adv-x="719" 
d="M545 79c-38 -55 -107 -90 -201 -90c-187 0 -307 140 -307 334c0 197 138 337 342 337c159 0 250 -74 250 -141c0 -58 -72 -75 -76 -70c-37 55 -102 85 -167 85c-115 0 -199 -87 -199 -216c0 -128 74 -216 190 -216c92 0 156 50 165 124v16h-115c-48 0 -71 13 -71 53v6
c0 42 23 53 71 53h183c46 0 62 -24 61 -70v-274c0 -4 -22 -14 -49 -14c-35 0 -71 16 -77 83z" />
    <glyph glyph-name="H" unicode="H" horiz-adv-x="692" 
d="M120 -4c-40 0 -62 23 -62 67v521c0 45 22 67 62 67h22c42 0 64 -22 64 -67v-197h280v197c0 45 22 67 62 67h21c43 0 65 -22 65 -67v-521c0 -44 -22 -67 -65 -67h-21c-40 0 -62 23 -62 67v199h-280v-199c0 -44 -22 -67 -64 -67h-22z" />
    <glyph glyph-name="I" unicode="I" horiz-adv-x="280" 
d="M129 -4c-41 0 -63 23 -63 67v521c0 45 22 67 63 67h20c43 0 65 -22 65 -67v-521c0 -44 -22 -67 -65 -67h-20z" />
    <glyph glyph-name="J" unicode="J" horiz-adv-x="497" 
d="M210 -13c-119 0 -191 52 -191 115c0 55 54 80 56 76c26 -40 67 -66 117 -66c72 0 101 34 101 126v346c0 45 21 67 62 67h21c42 0 64 -22 64 -67v-348c0 -170 -77 -249 -230 -249z" />
    <glyph glyph-name="K" unicode="K" horiz-adv-x="614" 
d="M206 300v-237c0 -44 -22 -67 -65 -67h-21c-40 0 -62 23 -62 67v521c0 45 22 67 62 67h21c43 0 65 -22 65 -67v-231l212 250c28 37 54 48 81 48c55 0 86 -51 82 -59l-219 -262l227 -276c5 -8 -30 -58 -87 -58c-29 0 -56 12 -81 46z" />
    <glyph glyph-name="L" unicode="L" horiz-adv-x="539" 
d="M135 0c-48 0 -77 29 -77 81v503c0 45 22 67 62 67h21c43 0 65 -22 65 -67v-454h242c46 0 68 -21 68 -62v-4c0 -41 -22 -64 -68 -64h-313z" />
    <glyph glyph-name="M" unicode="M" horiz-adv-x="759" 
d="M116 -4c-41 0 -58 23 -58 67v514c0 48 27 74 73 74h41c45 0 60 -14 77 -52l131 -307l132 307c18 40 34 52 75 52h39c48 0 75 -26 75 -74v-514c0 -44 -16 -67 -58 -67h-23c-40 0 -58 23 -58 67v385l-108 -262c-11 -25 -17 -46 -75 -46c-59 0 -63 20 -74 46l-108 257v-380
c0 -44 -15 -67 -58 -67h-23z" />
    <glyph glyph-name="N" unicode="N" horiz-adv-x="692" 
d="M119 -4c-40 0 -61 23 -61 67v515c0 47 24 73 64 73h18c39 0 52 -13 75 -42l280 -385v360c0 44 21 67 63 67h14c41 0 62 -23 62 -67v-515c0 -48 -24 -73 -63 -73h-12c-39 0 -50 10 -71 36l-291 400v-369c0 -44 -21 -67 -64 -67h-14z" />
    <glyph glyph-name="O" unicode="O" horiz-adv-x="737" 
d="M368 -13c-196 0 -333 138 -333 336c0 197 140 337 334 337c196 0 333 -139 333 -336c0 -198 -138 -337 -334 -337zM369 118c111 0 187 82 187 205c0 122 -77 207 -188 207s-186 -82 -186 -206c0 -122 76 -206 187 -206z" />
    <glyph glyph-name="P" unicode="P" horiz-adv-x="589" 
d="M204 321h97c82 0 125 38 125 106s-43 105 -125 105h-97v-211zM206 210v-147c0 -42 -22 -67 -64 -67h-22c-39 0 -62 23 -62 67v502c0 52 29 82 77 82h168c172 0 267 -76 267 -219c0 -144 -91 -218 -266 -218h-98z" />
    <glyph glyph-name="Q" unicode="Q" horiz-adv-x="737" 
d="M455 134l-64 66c-24 26 -33 68 -6 91l6 6c28 23 63 11 89 -17c0 0 58 -61 58 -62c14 30 22 65 22 105c0 120 -76 208 -189 208c-114 0 -189 -87 -189 -208s78 -206 188 -206c31 0 60 6 85 17zM636 122l78 -83c4 -5 -28 -52 -82 -52c-26 0 -57 12 -89 49
c-51 -31 -110 -49 -174 -49c-196 0 -334 138 -334 336c0 197 140 337 335 337c196 0 332 -138 332 -336c0 -76 -24 -146 -66 -202z" />
    <glyph glyph-name="R" unicode="R" horiz-adv-x="616" 
d="M203 338h113c79 0 117 37 117 97c0 63 -40 97 -120 97h-110v-194zM413 254l168 -204c6 -7 -22 -54 -85 -54c-42 0 -66 18 -97 60l-138 174h-56v-167c0 -42 -22 -67 -64 -67h-21c-40 0 -62 29 -62 81v488c0 52 29 82 77 82h191c168 0 255 -70 255 -202
c0 -103 -58 -173 -168 -191z" />
    <glyph glyph-name="S" unicode="S" horiz-adv-x="569" 
d="M276 -13c-172 0 -250 71 -250 130c0 41 51 78 56 74c39 -47 113 -89 193 -89c77 0 118 29 118 79c0 58 -65 67 -141 84c-104 23 -210 63 -210 195c0 120 97 200 252 200c157 0 233 -63 233 -118c0 -46 -56 -80 -59 -77c-38 45 -103 80 -172 80c-71 0 -112 -30 -112 -77
c0 -56 58 -61 138 -79c117 -26 219 -75 219 -197c0 -129 -94 -205 -265 -205z" />
    <glyph glyph-name="T" unicode="T" horiz-adv-x="605" 
d="M230 518h-147c-44 0 -68 22 -68 64v4c0 40 24 61 68 61h439c45 0 68 -21 68 -61v-4c0 -42 -23 -64 -68 -64h-145v-455c0 -44 -23 -67 -65 -67h-21c-41 0 -61 23 -61 67v455z" />
    <glyph glyph-name="U" unicode="U" horiz-adv-x="663" 
d="M331 -11c-183 0 -278 96 -278 283v312c0 45 24 67 64 67h19c42 0 64 -22 64 -67v-310c0 -104 44 -157 132 -157c89 0 131 51 131 157v310c0 45 23 67 64 67h20c42 0 63 -22 63 -67v-310c0 -187 -96 -285 -279 -285z" />
    <glyph glyph-name="V" unicode="V" horiz-adv-x="645" 
d="M326 165l141 418c15 49 48 68 80 68c47 0 92 -36 86 -49l-222 -552c-17 -39 -40 -56 -88 -56c-47 0 -69 15 -86 56l-226 552c-6 13 42 49 90 49c37 0 69 -24 82 -68z" />
    <glyph glyph-name="W" unicode="W" horiz-adv-x="951" 
d="M282 -6c-52 0 -79 13 -90 57l-152 553c-2 7 29 46 90 46c33 0 70 -18 82 -81l82 -387l98 338c10 39 41 59 88 59c45 0 75 -21 85 -59l97 -336l83 387c11 58 44 80 80 80c58 0 88 -40 86 -47l-149 -553c-10 -43 -39 -57 -91 -57c-50 0 -78 14 -91 57l-102 350l-106 -350
c-11 -42 -40 -57 -90 -57z" />
    <glyph glyph-name="X" unicode="X" horiz-adv-x="636" 
d="M320 407l-125 192c-21 37 -49 52 -79 52c-53 0 -99 -48 -93 -58l195 -269l-199 -274c-6 -10 38 -57 88 -57c27 0 55 13 78 52l130 196l128 -195c21 -37 52 -51 80 -51c53 0 97 47 92 57l-198 271l198 272c5 10 -38 57 -89 57c-27 0 -56 -16 -77 -52z" />
    <glyph glyph-name="Y" unicode="Y" horiz-adv-x="603" 
d="M376 260v-197c0 -44 -22 -67 -65 -67h-20c-41 0 -63 23 -63 67v197l-226 334c-5 8 21 57 94 57c26 0 51 -16 70 -51l136 -222l138 221c22 38 47 52 71 52c66 0 95 -50 90 -57z" />
    <glyph glyph-name="Z" unicode="Z" horiz-adv-x="614" 
d="M123 0c-59 0 -83 30 -83 62v10c0 42 15 60 48 99l296 352h-274c-42 0 -65 17 -65 58v7c0 41 23 59 65 59h378c60 0 83 -30 83 -62v-9c0 -43 -19 -65 -47 -97l-301 -355h293c43 0 66 -17 66 -58v-7c0 -41 -23 -59 -66 -59h-393z" />
    <glyph glyph-name="bracketleft" unicode="[" horiz-adv-x="373" 
d="M136 -198c-48 0 -77 29 -77 81v689c0 52 29 82 77 82h152c48 0 68 -16 68 -54v-6c0 -40 -20 -56 -68 -56h-98v-622h100c48 0 68 -15 68 -53v-6c0 -39 -20 -55 -68 -55h-154z" />
    <glyph glyph-name="backslash" unicode="\" horiz-adv-x="359" 
d="M289 -209c-16 0 -30 3 -30 5l-241 763c-5 18 -8 32 -8 42c0 48 43 56 72 56c16 0 30 -3 30 -5l241 -763c5 -17 8 -31 8 -42c0 -48 -43 -56 -72 -56z" />
    <glyph glyph-name="bracketright" unicode="]" horiz-adv-x="373" 
d="M83 -198c-48 0 -68 16 -68 55v6c0 38 20 53 68 53h100v622h-98c-48 0 -68 16 -68 56v6c0 38 20 54 68 54h152c48 0 77 -30 77 -82v-689c0 -52 -29 -81 -77 -81h-154z" />
    <glyph glyph-name="asciicircum" unicode="^" 
d="M250 542c38 -67 73 -101 106 -101c27 0 45 18 45 44c0 61 -112 142 -151 152c-39 -10 -152 -91 -152 -152c0 -26 19 -44 46 -44c33 0 67 34 106 101z" />
    <glyph glyph-name="underscore" unicode="_" horiz-adv-x="496" 
d="M68 -108c-38 0 -57 20 -57 51v6c0 30 19 51 57 51h359c39 0 58 -21 58 -51v-6c0 -31 -19 -51 -58 -51h-359z" />
    <glyph glyph-name="quoteleft" unicode="&#x2018;" horiz-adv-x="234" 
d="M86 394c-35 0 -57 20 -57 62v5c0 24 9 47 33 75l79 110c23 27 82 9 72 -32l-45 -158c-11 -41 -21 -62 -67 -62h-15z" />
    <glyph glyph-name="a" unicode="a" horiz-adv-x="546" 
d="M239 81c70 0 119 46 119 110v28l-26 -1c-111 -3 -169 -25 -169 -78c0 -36 29 -59 76 -59zM358 296c0 63 -35 97 -100 97c-68 0 -103 -37 -121 -75c0 -2 -91 -5 -91 60c0 61 72 121 221 121c154 0 230 -70 230 -201v-289c0 -7 -26 -16 -53 -16c-44 0 -75 24 -83 78
c-35 -51 -96 -82 -169 -82c-102 0 -164 58 -164 141c0 112 100 163 314 166h16z" />
    <glyph glyph-name="b" unicode="b" horiz-adv-x="605" 
d="M194 306c0 1 0 -90 0 -90c0 -69 54 -117 122 -117c76 0 126 58 126 143c0 86 -51 144 -125 144c-59 0 -102 -31 -123 -80zM194 71c0 1 0 -8 0 -8c0 -51 -26 -67 -62 -67h-15c-38 0 -64 15 -64 67v616c0 5 25 16 53 16c42 0 88 -22 88 -113v-163c34 49 89 80 158 80
c132 0 226 -99 226 -255c0 -152 -93 -257 -228 -257c-74 0 -130 37 -156 84z" />
    <glyph glyph-name="c" unicode="c" horiz-adv-x="514" 
d="M284 -13c-151 0 -257 106 -257 256c0 149 108 255 257 255s208 -86 208 -132c0 -57 -75 -67 -78 -62c-19 47 -55 81 -124 81c-77 0 -133 -59 -133 -142s56 -143 133 -143c67 0 105 34 124 81c2 5 78 -3 78 -63c0 -46 -62 -131 -208 -131z" />
    <glyph glyph-name="d" unicode="d" horiz-adv-x="605" 
d="M411 215v93c-20 48 -62 78 -121 78c-77 0 -127 -56 -127 -144c0 -84 52 -143 125 -143c67 0 123 47 123 116zM411 425v254c0 5 25 16 53 16c42 0 88 -22 88 -113v-519c0 -51 -26 -67 -62 -67h-15c-38 0 -64 15 -64 67v16c-31 -56 -86 -92 -158 -92
c-132 0 -226 103 -226 256c0 155 93 256 228 256c71 0 128 -32 156 -74z" />
    <glyph glyph-name="e" unicode="e" horiz-adv-x="550" 
d="M155 288h239c-3 68 -46 113 -114 113c-66 0 -116 -47 -125 -113zM155 206c10 -73 65 -116 141 -116c74 0 115 33 138 72c1 2 68 -7 68 -64c0 -52 -75 -111 -211 -111c-159 0 -264 99 -264 253c0 149 107 259 255 259c144 0 243 -101 243 -244v-10c-1 -25 -8 -39 -34 -39
h-336z" />
    <glyph glyph-name="f" unicode="f" horiz-adv-x="381" 
d="M105 378h-40c-41 0 -59 18 -59 52v8c0 33 18 50 59 50h40v26c0 136 67 187 169 187c86 0 124 -37 124 -77c0 -34 -28 -60 -30 -57c-14 13 -39 26 -67 26c-41 0 -60 -23 -60 -79v-26h63c41 0 59 -18 59 -52v-9c0 -32 -18 -49 -59 -49h-58v-315c0 -52 -25 -67 -63 -67h-15
c-36 0 -63 16 -63 67v315z" />
    <glyph glyph-name="g" unicode="g" horiz-adv-x="512" 
d="M251 0c-70 -5 -122 -28 -122 -67c0 -34 40 -55 121 -55s126 22 126 60c0 39 -61 48 -125 62zM252 224c55 0 93 37 93 92c0 54 -38 91 -94 91c-54 0 -92 -36 -92 -91s39 -92 93 -92zM357 477l21 40c19 35 39 49 70 49c50 0 72 -57 69 -60c0 0 -84 -81 -85 -81
c28 -29 44 -67 44 -109c0 -104 -87 -175 -223 -175h-7c-1 -3 -2 -7 -2 -10c0 -27 47 -30 126 -50c69 -19 141 -56 141 -138c0 -94 -97 -154 -264 -154c-174 0 -252 43 -252 136c0 68 64 114 153 126c-12 11 -18 26 -18 45c0 23 14 44 33 57c-83 24 -134 84 -134 161
c0 105 93 184 222 184c38 0 74 -7 106 -21z" />
    <glyph glyph-name="h" unicode="h" horiz-adv-x="581" 
d="M194 411c31 51 82 88 157 88c128 0 182 -92 182 -206v-230c0 -51 -26 -67 -62 -67h-15c-38 0 -64 15 -64 67v210c0 68 -34 108 -90 108c-66 0 -108 -44 -108 -114v-204c0 -51 -26 -67 -62 -67h-15c-38 0 -64 15 -64 67v616c0 5 25 16 53 16c42 0 88 -22 88 -113v-171z
" />
    <glyph glyph-name="i" unicode="i" horiz-adv-x="255" 
d="M128 569c-49 0 -79 27 -79 72c0 44 30 71 79 71s78 -26 78 -71s-29 -72 -78 -72zM121 -4c-37 0 -64 15 -64 67v362c0 51 27 68 63 68h15c38 0 63 -16 63 -68v-362c0 -51 -26 -67 -62 -67h-15z" />
    <glyph glyph-name="j" unicode="j" horiz-adv-x="255" 
d="M128 569c-49 0 -79 27 -79 72c0 44 30 71 79 71s78 -26 78 -71s-29 -72 -78 -72zM37 -200c-74 0 -117 30 -117 79c0 34 27 60 29 58c13 -14 33 -25 57 -25c35 0 51 19 51 62v451c0 51 27 68 63 68h15c38 0 63 -16 63 -68v-458c0 -107 -57 -167 -161 -167z" />
    <glyph glyph-name="k" unicode="k" horiz-adv-x="514" 
d="M194 225v-162c0 -51 -26 -67 -62 -67h-15c-38 0 -64 15 -64 67v616c0 5 25 16 53 16c42 0 88 -22 88 -113v-306l137 173c23 33 53 45 77 45c46 0 80 -41 76 -48l-153 -191l173 -213c4 -7 -32 -48 -77 -48c-26 0 -55 11 -80 45z" />
    <glyph glyph-name="l" unicode="l" horiz-adv-x="255" 
d="M121 -4c-37 0 -64 15 -64 67v616c0 5 25 16 53 16c42 0 88 -22 88 -113v-519c0 -51 -26 -67 -62 -67h-15z" />
    <glyph glyph-name="m" unicode="m" horiz-adv-x="887" 
d="M191 415c33 49 81 84 151 84c81 0 133 -38 156 -100c33 56 84 100 165 100c124 0 176 -79 176 -194v-242c0 -51 -26 -67 -63 -67h-14c-38 0 -64 15 -64 67v219c0 65 -29 99 -85 99c-41 0 -77 -25 -97 -60v-258c0 -51 -26 -67 -62 -67h-15c-37 0 -64 15 -64 67v216
c0 68 -28 102 -84 102c-41 0 -77 -25 -97 -60v-258c0 -51 -26 -67 -62 -67h-15c-38 0 -64 15 -64 67v414c0 4 25 16 53 16c36 0 75 -16 85 -78z" />
    <glyph glyph-name="n" unicode="n" horiz-adv-x="581" 
d="M192 413c34 50 84 86 159 86c128 0 182 -90 182 -202v-234c0 -51 -26 -67 -62 -67h-15c-38 0 -64 15 -64 67v213c0 65 -33 105 -90 105c-50 0 -88 -26 -108 -64v-254c0 -51 -26 -67 -62 -67h-15c-38 0 -64 15 -64 67v414c0 4 25 16 53 16c36 0 76 -17 86 -80z" />
    <glyph glyph-name="o" unicode="o" horiz-adv-x="576" 
d="M287 -13c-155 0 -260 103 -260 256c0 151 107 256 262 256c154 0 259 -105 259 -257s-105 -255 -261 -255zM288 98c78 0 136 61 136 144c0 85 -57 147 -136 147s-137 -61 -137 -146c0 -84 58 -145 137 -145z" />
    <glyph glyph-name="p" unicode="p" horiz-adv-x="605" 
d="M194 307v-91c0 -69 54 -117 122 -117c76 0 126 58 126 143c0 86 -51 144 -125 144c-59 0 -102 -31 -123 -79zM194 76v-203c0 -51 -26 -68 -62 -68h-15c-38 0 -64 16 -64 68v604c0 4 25 16 53 16c37 0 78 -17 86 -85c32 56 86 91 160 91c132 0 226 -99 226 -255
c0 -152 -93 -257 -228 -257c-74 0 -130 40 -156 89z" />
    <glyph glyph-name="q" unicode="q" horiz-adv-x="605" 
d="M411 216v91c-20 48 -62 79 -121 79c-77 0 -127 -56 -127 -144c0 -84 52 -143 125 -143c67 0 123 48 123 117zM414 419c12 59 50 74 85 74c28 0 53 -12 53 -16v-604c0 -52 -26 -68 -64 -68h-15c-36 0 -62 17 -62 68v206c-31 -56 -86 -92 -158 -92
c-132 0 -226 103 -226 256c0 155 93 256 228 256c74 0 132 -35 159 -80z" />
    <glyph glyph-name="r" unicode="r" horiz-adv-x="415" 
d="M192 410c20 56 60 89 119 89c57 0 91 -32 91 -82c0 -56 -43 -76 -45 -74c-15 14 -37 24 -64 24c-69 0 -99 -60 -99 -158v-146c0 -51 -26 -67 -62 -67h-15c-38 0 -64 15 -64 67v414c0 4 25 16 53 16c37 0 77 -17 86 -83z" />
    <glyph glyph-name="s" unicode="s" horiz-adv-x="476" 
d="M232 -11c-143 0 -212 50 -212 106c0 36 40 61 43 58c34 -36 89 -65 161 -65c55 0 86 16 86 47c0 37 -39 43 -105 57c-67 15 -172 37 -172 148c0 95 80 158 204 158c132 0 197 -48 197 -104c0 -37 -43 -63 -45 -60c-33 38 -86 65 -143 65c-53 0 -83 -17 -83 -48
c0 -35 38 -41 104 -55c69 -15 180 -38 180 -149c0 -98 -81 -158 -215 -158z" />
    <glyph glyph-name="t" unicode="t" horiz-adv-x="402" 
d="M97 378h-24c-40 0 -59 17 -59 49v9c0 34 19 52 59 52h24v62c0 46 24 68 64 68h12c38 0 63 -16 63 -68v-62h85c40 0 57 -17 57 -50v-8c0 -34 -18 -52 -59 -52h-86v-208c0 -48 16 -72 54 -72c29 0 48 14 63 33c2 3 34 -16 34 -55c0 -49 -49 -89 -129 -89
c-108 0 -158 57 -158 167v224z" />
    <glyph glyph-name="u" unicode="u" horiz-adv-x="581" 
d="M391 73c-34 -50 -85 -86 -161 -86c-128 0 -181 89 -181 202v236c0 51 26 68 62 68h15c37 0 64 -16 64 -68v-215c0 -65 33 -105 92 -105c47 0 85 26 105 64v256c0 51 26 68 63 68h14c38 0 64 -16 64 -68v-413c0 -5 -24 -16 -53 -16c-35 0 -74 15 -84 77z" />
    <glyph glyph-name="v" unicode="v" horiz-adv-x="531" 
d="M266 129l-99 293c-18 56 -46 71 -80 71c-42 0 -79 -33 -76 -41l177 -422c12 -29 45 -36 79 -36c32 0 67 8 79 37l175 421c3 8 -33 41 -76 41c-30 0 -59 -15 -77 -71z" />
    <glyph glyph-name="w" unicode="w" horiz-adv-x="755" 
d="M218 -6c-35 0 -66 8 -76 41l-127 417c-2 9 46 41 86 41c27 0 59 -13 67 -61l61 -291l78 253c9 31 36 46 76 46s66 -15 74 -46l74 -248l60 286c8 47 39 61 65 61c41 0 86 -33 83 -41l-124 -417c-9 -33 -41 -41 -75 -41c-50 0 -69 9 -82 47l-79 247l-81 -247
c-11 -38 -32 -47 -80 -47z" />
    <glyph glyph-name="x" unicode="x" horiz-adv-x="519" 
d="M258 175l83 -130c18 -34 44 -51 76 -51c50 0 86 40 81 47l-147 202l149 204c5 7 -32 47 -81 47c-27 0 -56 -14 -76 -51l-83 -130l-83 130c-19 36 -46 51 -79 51c-46 0 -82 -40 -78 -47l148 -203l-149 -203c-5 -6 32 -47 79 -47c33 0 60 18 78 51z" />
    <glyph glyph-name="y" unicode="y" horiz-adv-x="531" 
d="M219 -192c-41 0 -79 32 -75 39l81 184c-23 3 -37 11 -46 31l-168 390c-3 8 34 41 77 41c33 0 61 -15 79 -70l106 -279l94 278c17 55 47 71 78 71c40 0 79 -32 76 -39l-222 -577c-21 -53 -49 -69 -80 -69z" />
    <glyph glyph-name="z" unicode="z" horiz-adv-x="494" 
d="M83 0c-38 0 -53 25 -53 50c0 9 0 17 0 8c0 32 9 42 31 67l218 254h-189c-39 0 -57 16 -57 51v7c0 33 18 51 57 51h314c38 0 54 -24 54 -49v-7c0 -30 -9 -41 -31 -65l-224 -258h207c39 0 57 -16 57 -51v-6c0 -34 -18 -52 -57 -52h-327z" />
    <glyph glyph-name="braceleft" unicode="{" horiz-adv-x="462" 
d="M376 -199c-102 0 -220 86 -239 302l-42 22c-60 31 -74 47 -74 103c0 57 18 74 74 103l43 23c18 216 137 302 238 302c42 0 72 -24 72 -62c0 -27 -19 -45 -24 -46c-115 -15 -151 -96 -157 -254l-119 -66l118 -66c7 -158 43 -238 158 -254c4 0 24 -19 24 -46
c0 -38 -31 -61 -72 -61z" />
    <glyph glyph-name="bar" unicode="|" horiz-adv-x="271" 
d="M129 -198c-37 0 -64 15 -64 68v718c0 51 27 68 63 68h15c38 0 63 -16 63 -68v-718c0 -51 -26 -68 -62 -68h-15z" />
    <glyph glyph-name="braceright" unicode="}" horiz-adv-x="462" 
d="M86 -199c-42 0 -72 23 -72 61c0 27 20 46 24 46c115 16 151 96 157 254l118 66l-118 66c-6 158 -43 239 -158 254c-4 1 -23 19 -23 46c0 38 30 62 71 62c102 0 220 -86 239 -302l42 -23c55 -29 75 -46 75 -103c0 -56 -15 -72 -75 -103l-42 -22
c-18 -216 -137 -302 -238 -302z" />
    <glyph glyph-name="asciitilde" unicode="~" horiz-adv-x="499" 
d="M130 160c-28 0 -47 21 -47 48c0 59 41 103 89 103c42 0 92 -24 140 -69c11 34 31 65 57 65c29 0 47 -21 47 -48c0 -59 -41 -102 -89 -102c-42 0 -92 23 -140 68c-11 -34 -31 -65 -57 -65z" />
    <glyph glyph-name="exclamdown" unicode="&#xa1;" horiz-adv-x="277" 
d="M130 508c-46 0 -68 23 -68 67v14c0 44 23 66 68 66h18c44 0 66 -22 66 -66v-14c0 -44 -22 -67 -66 -67h-18zM127 -8c-53 0 -84 33 -72 88l40 321c7 31 16 46 37 46h14c20 0 28 -15 35 -46l40 -321c12 -55 -18 -88 -69 -88h-25z" />
    <glyph glyph-name="cent" unicode="&#xa2;" horiz-adv-x="529" 
d="M349 541c106 -13 159 -67 159 -118c0 -54 -71 -70 -75 -65c-29 50 -65 74 -133 74c-82 0 -139 -57 -139 -149c0 -93 60 -150 146 -150c63 0 104 26 130 79c4 5 76 -8 76 -62c0 -55 -56 -112 -162 -126v-57c0 -46 -18 -68 -58 -68h-4c-42 0 -58 20 -58 68v60
c-126 24 -205 116 -205 255c0 134 82 230 204 255v58c0 46 17 68 57 68h5c41 0 57 -21 57 -68v-54z" />
    <glyph glyph-name="sterling" unicode="&#xa3;" horiz-adv-x="599" 
d="M256 249l-24 -134h272c45 0 64 -16 64 -53v-7c0 -38 -19 -55 -64 -55h-424c-44 0 -64 16 -64 55v7c0 37 20 53 64 53h24l25 134h-41c-30 0 -50 18 -50 46v12c0 29 20 47 50 47h60l20 109c23 129 98 197 219 197c120 0 187 -63 187 -134c0 -75 -81 -71 -82 -69
c-10 55 -41 89 -100 89s-87 -30 -100 -100l-17 -92h132c30 0 50 -18 50 -47v-12c0 -29 -20 -46 -50 -46h-151z" />
    <glyph glyph-name="fraction" unicode="&#x2044;" horiz-adv-x="683" 
d="M107 -9c-8 -9 -69 6 -69 43c0 17 7 29 26 51l506 574c8 9 69 -5 69 -43c0 -14 -7 -30 -26 -51z" />
    <glyph glyph-name="yen" unicode="&#xa5;" horiz-adv-x="614" 
d="M242 255h-141c-37 0 -53 18 -53 42v11c0 23 16 42 53 42h97c1 0 -156 241 -156 241c-5 8 15 61 85 61c30 0 53 -15 70 -51l111 -209l114 209c20 38 43 52 72 52c60 0 82 -55 78 -62l-156 -241h96c38 0 54 -19 54 -42v-11c0 -24 -16 -42 -54 -42h-139v-53h139
c38 0 54 -18 54 -42v-11c0 -23 -16 -42 -54 -42h-139v-46c0 -45 -17 -68 -59 -68h-15c-41 0 -57 23 -57 68v46h-141c-37 0 -53 19 -53 42v11c0 24 16 42 53 42h141v53z" />
    <glyph glyph-name="florin" unicode="&#x192;" horiz-adv-x="451" 
d="M112 317h-27c-41 0 -59 17 -59 51v9c0 32 18 50 59 50h47l10 58c21 123 86 174 176 174c83 0 129 -32 129 -83c0 -41 -40 -68 -41 -66c-12 17 -35 32 -65 32c-37 0 -55 -22 -64 -75l-8 -40h70c40 0 59 -18 59 -52v-9c0 -32 -19 -49 -59 -49h-84l-42 -229
c-14 -81 -58 -101 -93 -101c-38 0 -64 18 -63 23z" />
    <glyph glyph-name="section" unicode="&#xa7;" horiz-adv-x="569" 
d="M135 358c-48 23 -81 59 -81 124c0 107 94 178 235 178c162 0 216 -70 216 -115c0 -41 -47 -68 -51 -64c-40 46 -94 76 -158 76c-60 0 -102 -21 -102 -61c0 -42 56 -58 141 -78c95 -23 205 -54 205 -164c0 -62 -37 -108 -103 -133c46 -23 80 -59 80 -126
c0 -106 -94 -177 -247 -177c-164 0 -236 63 -236 124c0 38 45 65 48 61c39 -48 115 -80 189 -80c70 0 107 21 107 60c0 45 -51 55 -131 73c-96 22 -218 53 -218 168c0 63 38 109 106 134zM333 153c52 10 84 43 84 78c0 59 -75 72 -163 91c-3 1 -6 1 -8 2
c-58 -11 -94 -45 -94 -79c0 -59 80 -71 170 -90c4 -1 7 -2 11 -2z" />
    <glyph glyph-name="currency" unicode="&#xa4;" horiz-adv-x="631" 
d="M108 353h-35c-35 0 -50 17 -50 40v10c0 22 15 39 50 39h44c30 136 132 218 272 218c134 0 214 -66 214 -130c0 -52 -65 -75 -69 -70c-36 52 -74 80 -145 80c-63 0 -110 -35 -131 -98h159c35 0 50 -17 50 -39v-10c0 -23 -15 -40 -50 -40h-171v-58h171c35 0 50 -17 50 -39
v-10c0 -22 -15 -39 -50 -39h-159c21 -63 70 -100 135 -100c71 0 109 30 142 85c5 6 71 -18 71 -70c0 -57 -69 -135 -214 -135s-247 81 -276 220c1 0 -43 0 -43 0c-35 0 -50 17 -50 39v10c0 22 15 39 50 39h35v58z" />
    <glyph glyph-name="quotesingle" unicode="'" horiz-adv-x="238" 
d="M110 355c-21 0 -29 12 -33 36l-30 187c-8 51 14 76 71 76c58 0 80 -25 72 -76l-29 -187c-5 -24 -13 -36 -34 -36h-17z" />
    <glyph glyph-name="quotedblleft" unicode="&#x201c;" horiz-adv-x="435" 
d="M287 394c-35 0 -56 20 -56 62v5c0 27 11 51 32 75l79 110c25 26 81 9 72 -32l-45 -158c-10 -42 -21 -62 -67 -62h-15zM85 394c-34 0 -56 20 -56 62v5c0 27 11 50 33 75l79 110c24 27 82 9 72 -32l-46 -158c-10 -42 -20 -62 -66 -62h-16z" />
    <glyph glyph-name="guillemotleft" unicode="&#xab;" horiz-adv-x="533" 
d="M361 245c59 36 136 89 136 128c0 -3 0 0 0 3c0 29 -18 50 -51 50h-2c-73 0 -191 -164 -191 -181s118 -181 191 -181h2c33 0 51 22 51 50v4c0 38 -77 90 -136 127zM136 245c53 32 121 79 121 115c0 -3 0 1 0 2c0 27 -16 46 -46 46h-2c-66 0 -176 -147 -176 -163
s110 -163 176 -163h2c30 0 46 20 46 46v2c0 36 -68 82 -121 115z" />
    <glyph glyph-name="guilsinglleft" unicode="&#x2039;" horiz-adv-x="318" 
d="M147 245c59 36 135 89 135 128c0 -3 0 0 0 3c0 29 -18 50 -51 50h-2c-73 0 -196 -164 -196 -181s123 -181 196 -181h2c33 0 51 22 51 50v4c0 38 -76 90 -135 127z" />
    <glyph glyph-name="guilsinglright" unicode="&#x203a;" horiz-adv-x="318" 
d="M172 245c-59 36 -135 89 -135 128c0 -3 0 0 0 3c0 29 18 50 50 50h2c74 0 196 -164 196 -181s-122 -181 -196 -181h-2c-32 0 -50 22 -50 50v4c0 38 76 90 135 127z" />
    <glyph glyph-name="fi" unicode="&#xfb01;" horiz-adv-x="637" 
d="M503 -4c-38 0 -65 15 -65 67v362c0 51 27 68 64 68h14c38 0 63 -16 63 -68v-362c0 -51 -25 -67 -62 -67h-14zM105 378h-40c-41 0 -59 18 -59 52v8c0 33 18 50 59 50h40v26c0 136 67 187 169 187c86 0 124 -37 124 -77c0 -34 -28 -60 -30 -57c-14 13 -39 26 -67 26
c-41 0 -60 -23 -60 -79v-26h63c41 0 59 -18 59 -52v-9c0 -32 -18 -49 -59 -49h-58v-315c0 -52 -25 -67 -63 -67h-15c-36 0 -63 16 -63 67v315zM510 569c-49 0 -79 27 -79 72c0 44 29 71 78 71s79 -26 79 -71s-30 -72 -78 -72z" />
    <glyph glyph-name="fl" unicode="&#xfb02;" horiz-adv-x="637" 
d="M503 -4c-38 0 -65 15 -65 67v616c0 5 25 16 53 16c42 0 88 -22 88 -113v-519c0 -51 -25 -67 -62 -67h-14zM105 378h-40c-41 0 -59 18 -59 52v8c0 33 18 50 59 50h40v26c0 136 67 187 169 187c86 0 124 -37 124 -77c0 -34 -28 -60 -30 -57c-14 13 -39 26 -67 26
c-41 0 -60 -23 -60 -79v-26h63c41 0 59 -18 59 -52v-9c0 -32 -18 -49 -59 -49h-58v-315c0 -52 -25 -67 -63 -67h-15c-36 0 -63 16 -63 67v315z" />
    <glyph glyph-name="endash" unicode="&#x2013;" horiz-adv-x="556" 
d="M94 185c-40 0 -58 24 -58 54v12c0 29 18 53 58 53h363c41 0 58 -24 58 -53v-12c0 -30 -17 -54 -58 -54h-363z" />
    <glyph glyph-name="dagger" unicode="&#x2020;" horiz-adv-x="528" 
d="M228 434l-30 162c-10 44 12 61 66 61c55 0 76 -17 67 -61l-30 -161l143 30c43 10 62 -22 62 -68c0 -47 -18 -79 -62 -69l-146 32c28 -32 36 -67 34 -110l-14 -371c-3 -31 -17 -36 -41 -36h-26c-24 0 -38 5 -40 36l-14 371c-2 43 5 77 33 110l-146 -32
c-44 -10 -62 22 -62 69c0 51 15 79 62 68z" />
    <glyph glyph-name="daggerdbl" unicode="&#x2021;" horiz-adv-x="528" 
d="M228 443l-30 153c-10 44 12 61 66 61c55 0 76 -17 67 -61l-30 -152l143 30c43 10 62 -22 62 -68c0 -47 -18 -79 -62 -69l-148 32c30 -32 38 -66 36 -110l-4 -106l116 26c44 10 62 -22 62 -69c0 -46 -19 -78 -62 -68l-119 26l-7 -189c-3 -31 -17 -36 -41 -36h-26
c-24 0 -38 5 -40 36l-7 189l-120 -26c-47 -11 -62 17 -62 68c0 47 18 79 62 69c0 0 117 -26 117 -27l-4 107c-2 44 6 78 36 111c1 0 -149 -33 -149 -33c-44 -10 -62 22 -62 69c0 51 15 79 62 68z" />
    <glyph glyph-name="periodcentered" unicode="&#xb7;" horiz-adv-x="245" 
d="M112 172c-43 0 -66 22 -66 66v14c0 44 22 66 66 66h18c46 0 68 -22 68 -66v-14c0 -44 -22 -66 -68 -66h-18z" />
    <glyph glyph-name="paragraph" unicode="&#xb6;" horiz-adv-x="623" 
d="M511 -7c-25 0 -38 15 -38 43v575c0 29 13 43 38 43h13c27 0 41 -14 41 -43v-575c0 -28 -14 -43 -41 -43h-13zM366 -7c-27 0 -40 17 -40 43v243h-69c-152 0 -236 62 -236 184c0 123 78 189 233 189h111c33 0 53 -20 53 -51v-565c0 -28 -14 -43 -39 -43h-13z" />
    <glyph glyph-name="bullet" unicode="&#x2022;" horiz-adv-x="347" 
d="M174 116c-73 0 -128 56 -128 129s55 131 128 131c72 0 128 -58 128 -131c0 -71 -57 -129 -128 -129z" />
    <glyph glyph-name="quotesinglbase" unicode="&#x201a;" horiz-adv-x="234" 
d="M87 -109c-23 -26 -81 -8 -71 32l45 159c10 41 20 61 67 61h14c35 0 57 -20 57 -61v-6c0 -26 -11 -51 -32 -75z" />
    <glyph glyph-name="quotedblbase" unicode="&#x201e;" horiz-adv-x="435" 
d="M288 -109c-23 -26 -82 -8 -72 32l46 159c11 41 20 61 66 61h16c34 0 56 -20 56 -61v-6c0 -26 -11 -50 -33 -75zM87 -109c-24 -26 -81 -8 -72 32l45 159c10 41 21 61 67 61h15c35 0 56 -20 56 -61v-6c0 -26 -11 -51 -32 -75z" />
    <glyph glyph-name="quotedblright" unicode="&#x201d;" horiz-adv-x="435" 
d="M294 407c-23 -26 -82 -8 -72 32l46 159c11 41 20 61 66 61h16c34 0 56 -20 56 -61v-6c0 -26 -11 -50 -33 -75zM93 407c-24 -26 -81 -8 -72 32l45 159c10 41 21 61 67 61h15c35 0 56 -20 56 -61v-6c0 -26 -11 -51 -32 -75z" />
    <glyph glyph-name="guillemotright" unicode="&#xbb;" horiz-adv-x="533" 
d="M397 245c-53 32 -121 79 -121 115c0 -3 0 1 0 2c0 27 16 46 46 46h2c66 0 176 -147 176 -163s-110 -163 -176 -163h-2c-30 0 -46 20 -46 46v2c0 36 68 82 121 115zM172 245c-59 36 -135 89 -135 128c0 -3 0 0 0 3c0 29 18 50 50 50h2c74 0 191 -164 191 -181
s-117 -181 -191 -181h-2c-32 0 -50 22 -50 50v4c0 38 76 90 135 127z" />
    <glyph glyph-name="ellipsis" unicode="&#x2026;" horiz-adv-x="716" 
d="M587 -7c-44 0 -67 22 -67 66v14c0 44 23 66 67 66h17c46 0 68 -22 68 -66v-14c0 -44 -22 -66 -68 -66h-17zM348 -7c-44 0 -66 22 -66 66v14c0 44 22 66 66 66h18c46 0 68 -22 68 -66v-14c0 -44 -23 -66 -68 -66h-18zM109 -7c-43 0 -66 22 -66 66v14c0 44 22 66 66 66h18
c46 0 68 -22 68 -66v-14c0 -44 -22 -66 -68 -66h-18z" />
    <glyph glyph-name="perthousand" unicode="&#x2030;" horiz-adv-x="1108" 
d="M182 340c-97 0 -164 63 -164 154v8c0 91 68 155 165 155s163 -63 163 -154v-8c0 -91 -68 -155 -164 -155zM134 -11c-5 -6 -63 14 -63 49c0 17 7 30 27 51l503 570c6 6 63 -12 63 -48c0 -14 -7 -31 -26 -52zM926 -9c-97 0 -164 63 -164 154v8c0 91 68 155 165 155
s163 -63 163 -154v-8c0 -91 -68 -155 -164 -155zM556 -9c-97 0 -164 63 -164 154v8c0 91 68 155 165 155c96 0 163 -63 163 -154v-8c0 -91 -68 -155 -164 -155zM183 417c38 0 66 28 66 74v15c0 46 -29 74 -67 74c-39 0 -66 -27 -66 -74v-15c0 -46 28 -74 67 -74zM927 69
c38 0 66 27 66 73v15c0 46 -29 75 -67 75c-39 0 -66 -28 -66 -75v-15c0 -45 28 -73 67 -73zM557 69c37 0 66 27 66 73v15c0 46 -29 75 -67 75c-39 0 -66 -28 -66 -75v-15c0 -45 28 -73 67 -73z" />
    <glyph glyph-name="questiondown" unicode="&#xbf;" horiz-adv-x="499" 
d="M262 508c-46 0 -68 23 -68 67v14c0 44 23 66 68 66h17c44 0 67 -23 67 -66v-14c0 -44 -22 -67 -67 -67h-17zM247 -12c-141 0 -226 71 -226 179c0 164 184 143 193 258c4 19 24 27 57 27c35 0 60 -16 60 -49c-4 -166 -174 -141 -174 -226c0 -45 34 -74 93 -74
c84 0 122 58 130 115c0 3 96 6 96 -70c0 -71 -76 -160 -229 -160z" />
    <glyph glyph-name="grave" unicode="`" 
d="M147 594c-31 19 -49 48 -49 76c0 31 28 55 64 55c16 0 33 -6 50 -17c66 -41 122 -135 115 -148c-7 -12 -102 -13 -180 34z" />
    <glyph glyph-name="acute" unicode="&#xb4;" 
d="M172 560c-7 13 49 107 115 148c17 11 34 17 50 17c36 0 64 -24 64 -55c0 -28 -18 -57 -49 -76c-78 -47 -172 -46 -180 -34z" />
    <glyph glyph-name="circumflex" unicode="&#x2c6;" 
d="M250 645c38 -67 73 -101 106 -101c27 0 45 18 45 44c0 61 -112 142 -151 152c-39 -10 -152 -91 -152 -152c0 -26 19 -44 46 -44c33 0 67 34 106 101z" />
    <glyph glyph-name="tilde" unicode="&#x2dc;" 
d="M130 547c-28 0 -47 21 -47 48c0 59 41 103 89 103c42 0 92 -24 140 -69c11 34 31 65 57 65c29 0 47 -21 47 -48c0 -59 -41 -102 -89 -102c-42 0 -92 23 -140 68c-11 -34 -31 -65 -57 -65z" />
    <glyph glyph-name="macron" unicode="&#xaf;" 
d="M138 555c-39 0 -62 18 -62 51v6c0 32 24 50 62 50h224c39 0 62 -18 62 -50v-6c0 -33 -23 -51 -62 -51h-224z" />
    <glyph glyph-name="breve" unicode="&#x2d8;" 
d="M250 544c-77 0 -166 64 -166 119c0 27 19 48 50 48s81 -44 117 -91c34 47 84 91 115 91s50 -21 50 -48c0 -57 -91 -119 -166 -119z" />
    <glyph glyph-name="dotaccent" unicode="&#x2d9;" 
d="M250 544c-49 0 -80 32 -80 75s32 76 81 76c48 0 79 -33 79 -76s-31 -75 -80 -75z" />
    <glyph glyph-name="dieresis" unicode="&#xa8;" 
d="M353 544c-46 0 -74 26 -74 72s28 72 71 72c45 0 74 -26 74 -72s-29 -72 -71 -72zM150 544c-45 0 -74 26 -74 72s29 72 71 72c46 0 74 -26 74 -72s-28 -72 -71 -72z" />
    <glyph glyph-name="ring" unicode="&#x2da;" 
d="M249 544c-75 0 -125 52 -125 122c0 69 53 122 126 122c75 0 125 -52 125 -122s-52 -122 -126 -122zM249 608c32 0 55 25 55 58s-24 59 -55 59c-30 0 -54 -26 -54 -59c0 -32 24 -58 54 -58z" />
    <glyph glyph-name="cedilla" unicode="&#xb8;" 
d="M217 -223c-25 -18 -82 -5 -71 24l44 108c11 30 22 45 68 45h15c36 0 59 -14 59 -42v-5c0 -18 -13 -33 -38 -53z" />
    <glyph glyph-name="hungarumlaut" unicode="&#x2dd;" 
d="M281 560c-7 13 49 107 115 148c17 11 34 17 50 17c36 0 64 -24 64 -55c0 -28 -18 -57 -49 -76c-78 -47 -173 -46 -180 -34zM61 560c-7 13 49 107 115 148c17 11 34 17 50 17c36 0 64 -24 64 -55c0 -28 -18 -57 -49 -76c-78 -47 -172 -46 -180 -34z" />
    <glyph glyph-name="ogonek" unicode="&#x2db;" 
d="M289 -204c-46 0 -55 16 -68 46l-71 158h81l94 -103c22 -23 37 -36 37 -55c0 2 0 -3 0 -5c0 -26 -22 -41 -58 -41h-15z" />
    <glyph glyph-name="caron" unicode="&#x2c7;" 
d="M250 626c-38 67 -73 101 -106 101c-27 0 -45 -19 -45 -44c0 -61 112 -142 151 -153c39 11 151 92 151 153c0 25 -18 44 -45 44c-33 0 -67 -34 -106 -101z" />
    <glyph glyph-name="emdash" unicode="&#x2014;" horiz-adv-x="720" 
d="M94 185c-40 0 -58 24 -58 54v12c0 29 18 53 58 53h532c41 0 58 -24 58 -53v-12c0 -30 -17 -54 -58 -54h-532z" />
    <glyph glyph-name="AE" unicode="&#xc6;" horiz-adv-x="875" 
d="M236 275h177l-88 236zM443 165h-235l-40 -104c-19 -52 -50 -68 -81 -68c-42 0 -82 32 -77 45l216 558c10 31 33 51 95 51h450c46 0 68 -23 68 -62v-5c0 -41 -22 -62 -68 -62h-318l49 -128h191c48 0 68 -20 68 -57v-4c0 -39 -21 -60 -68 -60h-141l55 -141h169
c46 0 68 -20 68 -58v-6c0 -41 -22 -64 -68 -64h-192c-56 0 -83 13 -105 69z" />
    <glyph glyph-name="ordfeminine" unicode="&#xaa;" horiz-adv-x="444" 
d="M162 252c-85 0 -138 44 -138 111c0 80 52 125 261 132c-1 49 -25 77 -79 77c-51 0 -77 -32 -93 -60c0 -3 -74 -3 -74 48c0 49 54 100 175 100c129 0 186 -59 186 -166v-226c0 -6 -21 -13 -44 -13c-33 0 -58 16 -66 61c-25 -40 -74 -64 -128 -64zM208 -8
c-39 0 -60 20 -60 60v12c0 40 20 60 60 60h16c42 0 61 -20 61 -60v-12c0 -40 -20 -60 -61 -60h-16zM201 329c49 0 85 35 85 75v32c-119 -6 -151 -26 -151 -62c0 -28 26 -45 66 -45z" />
    <glyph glyph-name="Lslash" unicode="&#x141;" horiz-adv-x="565" 
d="M243 257v-128h237c45 0 68 -21 68 -61v-4c0 -42 -23 -64 -68 -64h-308c-48 0 -77 29 -77 81v130l-58 -18c-6 -2 -27 27 -27 57c0 31 12 54 77 74l8 2v258c0 45 22 67 63 67h20c43 0 65 -22 65 -67v-213l158 49c7 2 26 -27 26 -57s-14 -54 -76 -73z" />
    <glyph glyph-name="Oslash" unicode="&#xd8;" horiz-adv-x="737" 
d="M202 207l270 300c-29 17 -64 27 -103 27c-120 0 -196 -87 -196 -210c0 -44 10 -84 29 -117zM536 443l-272 -301c30 -19 65 -29 106 -29c119 0 197 88 197 210c0 46 -11 87 -31 120zM629 544c47 -58 74 -134 74 -220c0 -193 -137 -337 -334 -337c-75 0 -140 20 -193 56
c0 1 -79 -86 -79 -86c-5 -7 -59 13 -59 49c0 13 6 28 23 48l47 52c-46 57 -72 132 -72 217c0 192 137 337 334 337c74 0 139 -20 191 -55l72 80c6 6 59 -13 59 -49c0 -14 -6 -29 -23 -48z" />
    <glyph glyph-name="OE" unicode="&#x152;" horiz-adv-x="1030" 
d="M368 -13c-196 0 -333 138 -333 336c0 197 140 337 334 337c36 0 69 -4 101 -13h456c47 0 68 -23 68 -62v-5c0 -41 -21 -62 -68 -62h-292c34 -30 56 -74 61 -128h154c47 0 68 -21 68 -57v-4c0 -39 -21 -60 -68 -60h-153c-4 -59 -26 -107 -63 -141h299c46 0 67 -20 67 -58
v-6c0 -41 -21 -64 -67 -64h-462c-32 -9 -66 -13 -102 -13zM369 118c111 0 187 82 187 205c0 122 -77 207 -188 207s-186 -82 -186 -206c0 -122 76 -206 187 -206z" />
    <glyph glyph-name="ordmasculine" unicode="&#xba;" horiz-adv-x="477" 
d="M238 249c-123 0 -207 89 -207 205c0 115 88 206 209 206s207 -89 207 -205s-89 -206 -209 -206zM229 -8c-39 0 -60 20 -60 60v12c0 40 20 60 60 60h16c42 0 61 -20 61 -60v-12c0 -40 -20 -60 -61 -60h-16zM239 345c59 0 103 47 103 110s-45 111 -103 111
c-59 0 -104 -48 -104 -111c0 -62 46 -110 104 -110z" />
    <glyph glyph-name="ae" unicode="&#xe6;" horiz-adv-x="869" 
d="M473 288h240c-4 68 -46 113 -114 113c-66 0 -117 -47 -126 -113zM239 81c70 0 119 46 119 110v28l-26 -1c-111 -3 -169 -25 -169 -78c0 -36 29 -59 76 -59zM358 297c0 62 -35 96 -100 96c-68 0 -103 -37 -121 -75c0 -2 -91 -5 -91 60c0 61 70 121 210 121
c81 0 140 -25 173 -71c41 45 99 71 171 71c145 0 244 -101 244 -244v-10c-1 -25 -9 -39 -34 -39h-336c9 -73 64 -116 141 -116c73 0 115 33 137 72c1 2 68 -7 68 -64c0 -52 -75 -111 -210 -111c-105 0 -177 39 -214 110c-35 -63 -110 -108 -203 -108
c-101 0 -165 58 -165 141c0 112 100 163 314 166z" />
    <glyph glyph-name="dotlessi" unicode="&#x131;" horiz-adv-x="255" 
d="M121 -4c-37 0 -64 15 -64 67v362c0 51 27 68 63 68h15c38 0 63 -16 63 -68v-362c0 -51 -26 -67 -62 -67h-15z" />
    <glyph glyph-name="lslash" unicode="&#x142;" horiz-adv-x="352" 
d="M245 260v-199c0 -51 -26 -68 -63 -68h-14c-38 0 -64 16 -64 68v156l-68 -20c-6 -2 -26 29 -26 57c0 30 11 53 76 73l18 5v347c0 5 24 16 53 16c41 0 88 -22 88 -113v-207l71 22c8 3 27 -29 27 -57c0 -30 -13 -54 -76 -73z" />
    <glyph glyph-name="oslash" unicode="&#xf8;" horiz-adv-x="576" 
d="M77 -58c-5 -6 -58 12 -58 46c0 12 6 27 23 45l43 47c-34 44 -53 100 -53 162c0 144 110 257 259 257c53 0 99 -15 139 -39l76 85c5 6 58 -12 58 -45c0 -12 -6 -27 -22 -46l-46 -51c33 -43 52 -98 52 -160c0 -144 -109 -256 -259 -256c-52 0 -98 13 -137 37zM172 165
c1 0 187 205 187 205c-20 14 -43 22 -69 22c-80 0 -139 -63 -139 -149c0 -30 8 -56 21 -78zM290 95c80 0 139 63 139 148c0 29 -8 56 -22 77c1 0 -185 -204 -185 -204c19 -13 43 -21 68 -21z" />
    <glyph glyph-name="oe" unicode="&#x153;" horiz-adv-x="947" 
d="M552 288h239c-3 68 -46 113 -114 113c-66 0 -116 -47 -125 -113zM288 98c78 0 136 61 136 144c0 85 -57 147 -136 147s-137 -61 -137 -146c0 -84 58 -145 137 -145zM481 78c-43 -57 -110 -91 -194 -91c-155 0 -260 103 -260 256c0 151 107 256 262 256
c84 0 152 -35 194 -94c44 60 112 94 196 94c144 0 243 -101 243 -244v-10c-1 -25 -8 -39 -34 -39h-336c10 -73 65 -116 141 -116c74 0 115 33 138 72c1 2 68 -7 68 -64c0 -52 -75 -111 -211 -111c-94 0 -165 32 -207 91z" />
    <glyph glyph-name="germandbls" unicode="&#xdf;" horiz-adv-x="585" 
d="M406 390c110 -36 161 -112 161 -207c0 -114 -82 -196 -192 -196c-96 0 -145 37 -145 86c0 34 32 61 35 59c18 -19 39 -34 83 -34c46 0 84 37 84 84c0 52 -27 92 -113 116c-39 12 -62 29 -62 74c0 35 25 60 25 60c72 0 110 24 110 81c0 49 -37 80 -94 80
c-67 0 -104 -40 -104 -127c0 1 0 -405 0 -405c0 -45 -24 -68 -63 -68h-15c-38 0 -63 24 -63 68v394c0 169 82 245 247 245c141 0 227 -67 227 -169c0 -80 -40 -125 -121 -141z" />
    <glyph glyph-name="Eth" unicode="&#xd0;" horiz-adv-x="726" 
d="M242 377h125c36 0 50 -21 50 -46v-12c0 -26 -14 -47 -50 -47h-125v-145h95c130 0 207 72 207 198c0 123 -77 195 -205 195h-97v-143zM95 272h-36c-36 0 -51 21 -51 47v12c0 25 15 46 51 46h36v188c0 52 34 82 78 82c0 0 169 0 166 0c217 0 351 -122 351 -321
c0 -200 -138 -326 -355 -326c3 0 -158 0 -158 0c-45 0 -82 36 -82 81v191z" />
    <glyph glyph-name="eth" unicode="&#xf0;" horiz-adv-x="599" 
d="M423 286c-20 36 -70 70 -125 70c-83 0 -131 -50 -131 -128c0 -79 50 -130 125 -130c82 0 131 61 131 147c0 -4 0 18 0 41zM313 553l-99 -53c-32 -17 -57 -9 -68 17l-2 5c-11 25 -6 47 28 65l41 21c-34 14 -73 23 -114 29c-9 2 7 81 103 81c50 0 101 -14 149 -40l102 53
c33 17 52 4 67 -17l4 -4c16 -22 5 -48 -28 -65l-59 -30c76 -74 130 -184 130 -321c0 -191 -112 -307 -277 -307c-155 0 -259 88 -259 239c0 136 95 230 234 230c73 0 131 -36 160 -80c-16 72 -55 132 -112 177z" />
    <glyph glyph-name="Scaron" unicode="&#x160;" horiz-adv-x="569" 
d="M276 -13c-172 0 -250 71 -250 130c0 41 51 78 56 74c39 -47 113 -89 193 -89c77 0 118 29 118 79c0 58 -65 67 -141 84c-104 23 -210 63 -210 195c0 120 97 200 252 200c157 0 233 -63 233 -118c0 -46 -56 -80 -59 -77c-38 45 -103 80 -172 80c-71 0 -112 -30 -112 -77
c0 -56 58 -61 138 -79c117 -26 219 -75 219 -197c0 -129 -94 -205 -265 -205zM292 787c-38 67 -73 101 -106 101c-27 0 -45 -19 -45 -44c0 -61 112 -142 151 -153c39 11 151 92 151 153c0 25 -18 44 -45 44c-33 0 -67 -34 -106 -101z" />
    <glyph glyph-name="scaron" unicode="&#x161;" horiz-adv-x="476" 
d="M232 -11c-143 0 -212 50 -212 106c0 36 40 61 43 58c34 -36 89 -65 161 -65c55 0 86 16 86 47c0 37 -39 43 -105 57c-67 15 -172 37 -172 148c0 95 80 158 204 158c132 0 197 -48 197 -104c0 -37 -43 -63 -45 -60c-33 38 -86 65 -143 65c-53 0 -83 -17 -83 -48
c0 -35 38 -41 104 -55c69 -15 180 -38 180 -149c0 -98 -81 -158 -215 -158zM233 626c-38 67 -73 101 -106 101c-27 0 -45 -19 -45 -44c0 -61 112 -142 151 -153c39 11 151 92 151 153c0 25 -18 44 -45 44c-33 0 -67 -34 -106 -101z" />
    <glyph glyph-name="Yacute" unicode="&#xdd;" horiz-adv-x="603" 
d="M376 260v-197c0 -44 -22 -67 -65 -67h-20c-41 0 -63 23 -63 67v197l-226 334c-5 8 21 57 94 57c26 0 51 -16 70 -51l136 -222l138 221c22 38 47 52 71 52c66 0 95 -50 90 -57zM232 716c-7 13 49 107 115 148c17 11 34 17 50 17c36 0 64 -24 64 -55c0 -28 -18 -57 -49 -76
c-78 -47 -172 -46 -180 -34z" />
    <glyph glyph-name="yacute" unicode="&#xfd;" horiz-adv-x="531" 
d="M219 -192c-41 0 -79 32 -75 39l81 184c-23 3 -37 11 -46 31l-168 390c-3 8 34 41 77 41c33 0 61 -15 79 -70l106 -279l94 278c17 55 47 71 78 71c40 0 79 -32 76 -39l-222 -577c-21 -53 -49 -69 -80 -69zM202 554c-7 13 49 107 115 148c17 11 34 17 50 17
c36 0 64 -24 64 -55c0 -28 -18 -57 -49 -76c-78 -47 -172 -46 -180 -34z" />
    <glyph glyph-name="Thorn" unicode="&#xde;" horiz-adv-x="597" 
d="M206 540h95c173 0 267 -75 267 -215s-90 -213 -266 -213h-96v-49c0 -44 -22 -67 -65 -67h-21c-40 0 -62 23 -62 67v521c0 45 22 67 62 67h21c43 0 65 -22 65 -67v-44zM206 224h95c83 0 125 35 125 100c0 68 -41 101 -123 101h-97v-201z" />
    <glyph glyph-name="thorn" unicode="&#xfe;" horiz-adv-x="610" 
d="M194 306c0 1 0 -90 0 -90c0 -69 54 -117 122 -117c76 0 126 58 126 143c0 86 -51 144 -125 144c-59 0 -102 -31 -123 -80zM194 63v-190c0 -51 -26 -68 -62 -68h-15c-38 0 -64 16 -64 68v806c0 5 25 16 53 16c42 0 88 -22 88 -113v-169c36 53 91 86 158 86
c132 0 226 -100 226 -256s-92 -256 -228 -256c-69 0 -126 34 -156 76z" />
    <glyph glyph-name="Zcaron" unicode="&#x17d;" horiz-adv-x="614" 
d="M123 0c-59 0 -83 30 -83 62v10c0 42 15 60 48 99l296 352h-274c-42 0 -65 17 -65 58v7c0 41 23 59 65 59h378c60 0 83 -30 83 -62v-9c0 -43 -19 -65 -47 -97l-301 -355h293c43 0 66 -17 66 -58v-7c0 -41 -23 -59 -66 -59h-393zM299 787c-38 67 -73 101 -106 101
c-27 0 -45 -19 -45 -44c0 -61 112 -142 151 -153c39 11 151 92 151 153c0 25 -18 44 -45 44c-33 0 -67 -34 -106 -101z" />
    <glyph glyph-name="zcaron" unicode="&#x17e;" horiz-adv-x="494" 
d="M83 0c-38 0 -53 25 -53 50c0 9 0 17 0 8c0 32 9 42 31 67l218 254h-189c-39 0 -57 16 -57 51v7c0 33 18 51 57 51h314c38 0 54 -24 54 -49v-7c0 -30 -9 -41 -31 -65l-224 -258h207c39 0 57 -16 57 -51v-6c0 -34 -18 -52 -57 -52h-327zM240 626c-38 67 -73 101 -106 101
c-27 0 -45 -19 -45 -44c0 -61 112 -142 151 -153c39 11 151 92 151 153c0 25 -18 44 -45 44c-33 0 -67 -34 -106 -101z" />
    <glyph glyph-name="multiply" unicode="&#xd7;" horiz-adv-x="554" 
d="M94 61l-8 8c-21 21 -24 49 5 77l112 111l-112 111c-29 28 -25 56 -6 77l9 8c20 21 48 24 77 -7l107 -113l107 113c29 31 58 28 78 7l8 -8c20 -21 24 -49 -5 -77l-113 -111l113 -111c29 -28 26 -56 5 -77l-9 -8c-19 -20 -48 -24 -77 6l-107 114l-107 -114
c-29 -30 -57 -26 -77 -6z" />
    <glyph glyph-name="Adieresis" unicode="&#xc4;" horiz-adv-x="656" 
d="M236 275h177c1 0 -88 236 -88 236zM444 165h-236l-40 -104c-18 -51 -50 -68 -81 -68c-41 0 -82 32 -77 45l221 571c8 27 29 44 96 44s86 -17 95 -44l226 -570c5 -12 -36 -46 -80 -46c-32 0 -65 17 -85 70zM435 705c-46 0 -74 26 -74 72s28 72 71 72c45 0 74 -26 74 -72
s-29 -72 -71 -72zM232 705c-45 0 -74 26 -74 72s29 72 71 72c46 0 74 -26 74 -72s-28 -72 -71 -72z" />
    <glyph glyph-name="Aring" unicode="&#xc5;" horiz-adv-x="656" 
d="M327 665c31 0 55 25 55 57c0 33 -24 59 -55 59c-30 0 -54 -26 -54 -59c0 -32 24 -57 54 -57zM444 165h-236l-40 -104c-18 -51 -50 -68 -81 -68c-41 0 -82 32 -77 45l221 571c3 7 10 13 20 17c-31 20 -49 54 -49 96c0 70 54 123 126 123c73 0 125 -52 125 -123
c0 -42 -19 -76 -51 -96c9 -4 16 -10 19 -17l227 -570c5 -12 -36 -46 -80 -46c-32 0 -65 17 -85 70zM236 275h178l-89 237z" />
    <glyph glyph-name="Ccedilla" unicode="&#xc7;" horiz-adv-x="654" 
d="M369 -13c-196 0 -332 138 -332 336c0 197 136 337 334 337c171 0 249 -94 249 -146c0 -64 -83 -80 -85 -75c-32 56 -93 88 -159 88c-108 0 -187 -82 -187 -203s80 -204 189 -204c75 0 136 37 161 98c2 5 88 -11 88 -75c0 -55 -80 -156 -258 -156zM320 -223
c-25 -18 -82 -5 -71 24l44 108c11 30 22 45 68 45h15c36 0 59 -14 59 -42v-5c0 -18 -13 -33 -38 -53z" />
    <glyph glyph-name="Eacute" unicode="&#xc9;" horiz-adv-x="600" 
d="M135 0c-48 0 -77 29 -77 81v484c0 52 29 82 77 82h361c46 0 68 -23 68 -62v-5c0 -41 -22 -62 -68 -62h-290v-128h212c48 0 68 -21 68 -57v-4c0 -39 -21 -60 -68 -60h-212v-141h295c46 0 68 -20 68 -58v-6c0 -41 -22 -64 -68 -64h-366zM224 721c-7 13 49 107 115 148
c17 11 34 17 50 17c36 0 64 -24 64 -55c0 -28 -18 -57 -49 -76c-78 -47 -172 -46 -180 -34z" />
    <glyph glyph-name="Ntilde" unicode="&#xd1;" horiz-adv-x="692" 
d="M119 -4c-40 0 -61 23 -61 67v515c0 47 24 73 64 73h18c39 0 52 -13 75 -42l280 -385v360c0 44 21 67 63 67h14c41 0 62 -23 62 -67v-515c0 -48 -24 -73 -63 -73h-12c-39 0 -50 10 -71 36l-291 400v-369c0 -44 -21 -67 -64 -67h-14zM227 708c-28 0 -47 21 -47 48
c0 59 41 103 89 103c42 0 92 -24 140 -69c11 34 31 65 57 65c29 0 47 -21 47 -48c0 -59 -41 -102 -89 -102c-42 0 -92 23 -140 68c-11 -34 -31 -65 -57 -65z" />
    <glyph glyph-name="Odieresis" unicode="&#xd6;" horiz-adv-x="737" 
d="M368 -13c-196 0 -333 138 -333 336c0 197 140 337 334 337c196 0 333 -139 333 -336c0 -198 -138 -337 -334 -337zM369 118c111 0 187 82 187 205c0 122 -77 207 -188 207s-186 -82 -186 -206c0 -122 76 -206 187 -206zM472 705c-46 0 -74 26 -74 72s28 72 71 72
c45 0 74 -26 74 -72s-29 -72 -71 -72zM269 705c-45 0 -74 26 -74 72s29 72 71 72c46 0 74 -26 74 -72s-28 -72 -71 -72z" />
    <glyph glyph-name="Udieresis" unicode="&#xdc;" horiz-adv-x="663" 
d="M331 -11c-183 0 -278 96 -278 283v312c0 45 24 67 64 67h19c42 0 64 -22 64 -67v-310c0 -104 44 -157 132 -157c89 0 131 51 131 157v310c0 45 23 67 64 67h20c42 0 63 -22 63 -67v-310c0 -187 -96 -285 -279 -285zM434 705c-46 0 -74 26 -74 72s28 72 71 72
c45 0 74 -26 74 -72s-29 -72 -71 -72zM231 705c-45 0 -74 26 -74 72s29 72 71 72c46 0 74 -26 74 -72s-28 -72 -71 -72z" />
    <glyph glyph-name="aacute" unicode="&#xe1;" horiz-adv-x="546" 
d="M239 81c70 0 119 46 119 110v28l-26 -1c-111 -3 -169 -25 -169 -78c0 -36 29 -59 76 -59zM358 296c0 63 -35 97 -100 97c-68 0 -103 -37 -121 -75c0 -2 -91 -5 -91 60c0 61 72 121 221 121c154 0 230 -70 230 -201v-289c0 -7 -26 -16 -53 -16c-44 0 -75 24 -83 78
c-35 -51 -96 -82 -169 -82c-102 0 -164 58 -164 141c0 112 100 163 314 166h16zM191 560c-7 13 49 107 115 148c17 11 34 17 50 17c36 0 64 -24 64 -55c0 -28 -18 -57 -49 -76c-78 -47 -172 -46 -180 -34z" />
    <glyph glyph-name="agrave" unicode="&#xe0;" horiz-adv-x="546" 
d="M239 81c70 0 119 46 119 110v28l-26 -1c-111 -3 -169 -25 -169 -78c0 -36 29 -59 76 -59zM358 296c0 63 -35 97 -100 97c-68 0 -103 -37 -121 -75c0 -2 -91 -5 -91 60c0 61 72 121 221 121c154 0 230 -70 230 -201v-289c0 -7 -26 -16 -53 -16c-44 0 -75 24 -83 78
c-35 -51 -96 -82 -169 -82c-102 0 -164 58 -164 141c0 112 100 163 314 166h16zM175 594c-31 19 -49 48 -49 76c0 31 28 55 64 55c16 0 33 -6 50 -17c66 -41 122 -135 115 -148c-7 -12 -102 -13 -180 34z" />
    <glyph glyph-name="acircumflex" unicode="&#xe2;" horiz-adv-x="546" 
d="M239 81c70 0 119 46 119 110v28l-26 -1c-111 -3 -169 -25 -169 -78c0 -36 29 -59 76 -59zM358 296c0 63 -35 97 -100 97c-68 0 -103 -37 -121 -75c0 -2 -91 -5 -91 60c0 61 72 121 221 121c154 0 230 -70 230 -201v-289c0 -7 -26 -16 -53 -16c-44 0 -75 24 -83 78
c-35 -51 -96 -82 -169 -82c-102 0 -164 58 -164 141c0 112 100 163 314 166h16zM274 645c38 -67 73 -101 106 -101c27 0 45 18 45 44c0 61 -112 142 -151 152c-39 -10 -152 -91 -152 -152c0 -26 19 -44 46 -44c33 0 67 34 106 101z" />
    <glyph glyph-name="adieresis" unicode="&#xe4;" horiz-adv-x="546" 
d="M239 81c70 0 119 46 119 110v28l-26 -1c-111 -3 -169 -25 -169 -78c0 -36 29 -59 76 -59zM358 296c0 63 -35 97 -100 97c-68 0 -103 -37 -121 -75c0 -2 -91 -5 -91 60c0 61 72 121 221 121c154 0 230 -70 230 -201v-289c0 -7 -26 -16 -53 -16c-44 0 -75 24 -83 78
c-35 -51 -96 -82 -169 -82c-102 0 -164 58 -164 141c0 112 100 163 314 166h16zM372 544c-46 0 -74 26 -74 72s28 72 71 72c45 0 74 -26 74 -72s-29 -72 -71 -72zM169 544c-45 0 -74 26 -74 72s29 72 71 72c46 0 74 -26 74 -72s-28 -72 -71 -72z" />
    <glyph glyph-name="atilde" unicode="&#xe3;" horiz-adv-x="546" 
d="M239 81c70 0 119 46 119 110v28l-26 -1c-111 -3 -169 -25 -169 -78c0 -36 29 -59 76 -59zM358 296c0 63 -35 97 -100 97c-68 0 -103 -37 -121 -75c0 -2 -91 -5 -91 60c0 61 72 121 221 121c154 0 230 -70 230 -201v-289c0 -7 -26 -16 -53 -16c-44 0 -75 24 -83 78
c-35 -51 -96 -82 -169 -82c-102 0 -164 58 -164 141c0 112 100 163 314 166h16zM150 547c-28 0 -47 21 -47 48c0 59 41 103 89 103c42 0 92 -24 140 -69c11 34 31 65 57 65c29 0 47 -21 47 -48c0 -59 -41 -102 -89 -102c-42 0 -92 23 -140 68c-11 -34 -31 -65 -57 -65z" />
    <glyph glyph-name="aring" unicode="&#xe5;" horiz-adv-x="546" 
d="M239 81c70 0 119 46 119 110v28l-26 -1c-111 -3 -169 -25 -169 -78c0 -36 29 -59 76 -59zM358 296c0 63 -35 97 -100 97c-68 0 -103 -37 -121 -75c0 -2 -91 -5 -91 60c0 61 72 121 221 121c154 0 230 -70 230 -201v-289c0 -7 -26 -16 -53 -16c-44 0 -75 24 -83 78
c-35 -51 -96 -82 -169 -82c-102 0 -164 58 -164 141c0 112 100 163 314 166h16zM268 544c-75 0 -125 52 -125 122c0 69 53 122 126 122c75 0 125 -52 125 -122s-52 -122 -126 -122zM268 608c32 0 55 25 55 58s-24 59 -55 59c-30 0 -54 -26 -54 -59c0 -32 24 -58 54 -58z" />
    <glyph glyph-name="ccedilla" unicode="&#xe7;" horiz-adv-x="514" 
d="M284 -13c-151 0 -257 106 -257 256c0 149 108 255 257 255s208 -86 208 -132c0 -57 -75 -67 -78 -62c-19 47 -55 81 -124 81c-77 0 -133 -59 -133 -142s56 -143 133 -143c67 0 105 34 124 81c2 5 78 -3 78 -63c0 -46 -62 -131 -208 -131zM242 -223c-25 -18 -82 -5 -71 24
l44 108c11 30 22 45 68 45h15c36 0 59 -14 59 -42v-5c0 -18 -13 -33 -38 -53z" />
    <glyph glyph-name="eacute" unicode="&#xe9;" horiz-adv-x="550" 
d="M155 288h239c-3 68 -46 113 -114 113c-66 0 -116 -47 -125 -113zM155 206c10 -73 65 -116 141 -116c74 0 115 33 138 72c1 2 68 -7 68 -64c0 -52 -75 -111 -211 -111c-159 0 -264 99 -264 253c0 149 107 259 255 259c144 0 243 -101 243 -244v-10c-1 -25 -8 -39 -34 -39
h-336zM199 560c-7 13 49 107 115 148c17 11 34 17 50 17c36 0 64 -24 64 -55c0 -28 -18 -57 -49 -76c-78 -47 -172 -46 -180 -34z" />
    <glyph glyph-name="egrave" unicode="&#xe8;" horiz-adv-x="550" 
d="M155 288h239c-3 68 -46 113 -114 113c-66 0 -116 -47 -125 -113zM155 206c10 -73 65 -116 141 -116c74 0 115 33 138 72c1 2 68 -7 68 -64c0 -52 -75 -111 -211 -111c-159 0 -264 99 -264 253c0 149 107 259 255 259c144 0 243 -101 243 -244v-10c-1 -25 -8 -39 -34 -39
h-336zM170 594c-31 19 -49 48 -49 76c0 31 28 55 64 55c16 0 33 -6 50 -17c66 -41 122 -135 115 -148c-7 -12 -102 -13 -180 34z" />
    <glyph glyph-name="ecircumflex" unicode="&#xea;" horiz-adv-x="550" 
d="M155 288h239c-3 68 -46 113 -114 113c-66 0 -116 -47 -125 -113zM155 206c10 -73 65 -116 141 -116c74 0 115 33 138 72c1 2 68 -7 68 -64c0 -52 -75 -111 -211 -111c-159 0 -264 99 -264 253c0 149 107 259 255 259c144 0 243 -101 243 -244v-10c-1 -25 -8 -39 -34 -39
h-336zM281 645c38 -67 73 -101 106 -101c27 0 45 18 45 44c0 61 -112 142 -151 152c-39 -10 -152 -91 -152 -152c0 -26 19 -44 46 -44c33 0 67 34 106 101z" />
    <glyph glyph-name="edieresis" unicode="&#xeb;" horiz-adv-x="550" 
d="M155 288h239c-3 68 -46 113 -114 113c-66 0 -116 -47 -125 -113zM155 206c10 -73 65 -116 141 -116c74 0 115 33 138 72c1 2 68 -7 68 -64c0 -52 -75 -111 -211 -111c-159 0 -264 99 -264 253c0 149 107 259 255 259c144 0 243 -101 243 -244v-10c-1 -25 -8 -39 -34 -39
h-336zM384 544c-46 0 -74 26 -74 72s28 72 71 72c45 0 74 -26 74 -72s-29 -72 -71 -72zM181 544c-45 0 -74 26 -74 72s29 72 71 72c46 0 74 -26 74 -72s-28 -72 -71 -72z" />
    <glyph glyph-name="iacute" unicode="&#xed;" horiz-adv-x="255" 
d="M121 -4c-37 0 -64 15 -64 67v362c0 51 27 68 63 68h15c38 0 63 -16 63 -68v-362c0 -51 -26 -67 -62 -67h-15zM64 560c-7 13 49 107 115 148c17 11 34 17 50 17c36 0 64 -24 64 -55c0 -28 -18 -57 -49 -76c-78 -47 -172 -46 -180 -34z" />
    <glyph glyph-name="igrave" unicode="&#xec;" horiz-adv-x="255" 
d="M121 -4c-37 0 -64 15 -64 67v362c0 51 27 68 63 68h15c38 0 63 -16 63 -68v-362c0 -51 -26 -67 -62 -67h-15zM106 594c-31 19 -49 48 -49 76c0 31 28 55 64 55c16 0 33 -6 50 -17c66 -41 122 -135 115 -148c-7 -12 -102 -13 -180 34z" />
    <glyph glyph-name="icircumflex" unicode="&#xee;" horiz-adv-x="255" 
d="M121 -4c-37 0 -64 15 -64 67v362c0 51 27 68 63 68h15c38 0 63 -16 63 -68v-362c0 -51 -26 -67 -62 -67h-15zM209 645c38 -67 73 -101 106 -101c27 0 45 18 45 44c0 61 -112 142 -151 152c-39 -10 -152 -91 -152 -152c0 -26 19 -44 46 -44c33 0 67 34 106 101z" />
    <glyph glyph-name="idieresis" unicode="&#xef;" horiz-adv-x="255" 
d="M121 -4c-37 0 -64 15 -64 67v362c0 51 27 68 63 68h15c38 0 63 -16 63 -68v-362c0 -51 -26 -67 -62 -67h-15zM334 544c-46 0 -74 26 -74 72s28 72 71 72c45 0 74 -26 74 -72s-29 -72 -71 -72zM131 544c-45 0 -74 26 -74 72s29 72 71 72c46 0 74 -26 74 -72
s-28 -72 -71 -72z" />
    <glyph glyph-name="ntilde" unicode="&#xf1;" horiz-adv-x="581" 
d="M192 413c34 50 84 86 159 86c128 0 182 -90 182 -202v-234c0 -51 -26 -67 -62 -67h-15c-38 0 -64 15 -64 67v213c0 65 -33 105 -90 105c-50 0 -88 -26 -108 -64v-254c0 -51 -26 -67 -62 -67h-15c-38 0 -64 15 -64 67v414c0 4 25 16 53 16c36 0 76 -17 86 -80zM173 547
c-28 0 -47 21 -47 48c0 59 41 103 89 103c42 0 92 -24 140 -69c11 34 31 65 57 65c29 0 47 -21 47 -48c0 -59 -41 -102 -89 -102c-42 0 -92 23 -140 68c-11 -34 -31 -65 -57 -65z" />
    <glyph glyph-name="oacute" unicode="&#xf3;" horiz-adv-x="576" 
d="M287 -13c-155 0 -260 103 -260 256c0 151 107 256 262 256c154 0 259 -105 259 -257s-105 -255 -261 -255zM288 98c78 0 136 61 136 144c0 85 -57 147 -136 147s-137 -61 -137 -146c0 -84 58 -145 137 -145zM223 560c-7 13 49 107 115 148c17 11 34 17 50 17
c36 0 64 -24 64 -55c0 -28 -18 -57 -49 -76c-78 -47 -172 -46 -180 -34z" />
    <glyph glyph-name="ograve" unicode="&#xf2;" horiz-adv-x="576" 
d="M287 -13c-155 0 -260 103 -260 256c0 151 107 256 262 256c154 0 259 -105 259 -257s-105 -255 -261 -255zM288 98c78 0 136 61 136 144c0 85 -57 147 -136 147s-137 -61 -137 -146c0 -84 58 -145 137 -145zM176 594c-31 19 -49 48 -49 76c0 31 28 55 64 55
c16 0 33 -6 50 -17c66 -41 122 -135 115 -148c-7 -12 -102 -13 -180 34z" />
    <glyph glyph-name="ocircumflex" unicode="&#xf4;" horiz-adv-x="576" 
d="M287 -13c-155 0 -260 103 -260 256c0 151 107 256 262 256c154 0 259 -105 259 -257s-105 -255 -261 -255zM288 98c78 0 136 61 136 144c0 85 -57 147 -136 147s-137 -61 -137 -146c0 -84 58 -145 137 -145zM290 645c38 -67 73 -101 106 -101c27 0 45 18 45 44
c0 61 -112 142 -151 152c-39 -10 -152 -91 -152 -152c0 -26 19 -44 46 -44c33 0 67 34 106 101z" />
    <glyph glyph-name="odieresis" unicode="&#xf6;" horiz-adv-x="576" 
d="M287 -13c-155 0 -260 103 -260 256c0 151 107 256 262 256c154 0 259 -105 259 -257s-105 -255 -261 -255zM288 98c78 0 136 61 136 144c0 85 -57 147 -136 147s-137 -61 -137 -146c0 -84 58 -145 137 -145zM393 544c-46 0 -74 26 -74 72s28 72 71 72c45 0 74 -26 74 -72
s-29 -72 -71 -72zM190 544c-45 0 -74 26 -74 72s29 72 71 72c46 0 74 -26 74 -72s-28 -72 -71 -72z" />
    <glyph glyph-name="otilde" unicode="&#xf5;" horiz-adv-x="576" 
d="M287 -13c-155 0 -260 103 -260 256c0 151 107 256 262 256c154 0 259 -105 259 -257s-105 -255 -261 -255zM288 98c78 0 136 61 136 144c0 85 -57 147 -136 147s-137 -61 -137 -146c0 -84 58 -145 137 -145zM171 547c-28 0 -47 21 -47 48c0 59 41 103 89 103
c42 0 92 -24 140 -69c11 34 31 65 57 65c29 0 47 -21 47 -48c0 -59 -41 -102 -89 -102c-42 0 -92 23 -140 68c-11 -34 -31 -65 -57 -65z" />
    <glyph glyph-name="uacute" unicode="&#xfa;" horiz-adv-x="581" 
d="M391 73c-34 -50 -85 -86 -161 -86c-128 0 -181 89 -181 202v236c0 51 26 68 62 68h15c37 0 64 -16 64 -68v-215c0 -65 33 -105 92 -105c47 0 85 26 105 64v256c0 51 26 68 63 68h14c38 0 64 -16 64 -68v-413c0 -5 -24 -16 -53 -16c-35 0 -74 15 -84 77zM229 560
c-7 13 49 107 115 148c17 11 34 17 50 17c36 0 64 -24 64 -55c0 -28 -18 -57 -49 -76c-78 -47 -172 -46 -180 -34z" />
    <glyph glyph-name="ugrave" unicode="&#xf9;" horiz-adv-x="581" 
d="M391 73c-34 -50 -85 -86 -161 -86c-128 0 -181 89 -181 202v236c0 51 26 68 62 68h15c37 0 64 -16 64 -68v-215c0 -65 33 -105 92 -105c47 0 85 26 105 64v256c0 51 26 68 63 68h14c38 0 64 -16 64 -68v-413c0 -5 -24 -16 -53 -16c-35 0 -74 15 -84 77zM176 594
c-31 19 -49 48 -49 76c0 31 28 55 64 55c16 0 33 -6 50 -17c66 -41 122 -135 115 -148c-7 -12 -102 -13 -180 34z" />
    <glyph glyph-name="ucircumflex" unicode="&#xfb;" horiz-adv-x="581" 
d="M391 73c-34 -50 -85 -86 -161 -86c-128 0 -181 89 -181 202v236c0 51 26 68 62 68h15c37 0 64 -16 64 -68v-215c0 -65 33 -105 92 -105c47 0 85 26 105 64v256c0 51 26 68 63 68h14c38 0 64 -16 64 -68v-413c0 -5 -24 -16 -53 -16c-35 0 -74 15 -84 77zM292 645
c38 -67 73 -101 106 -101c27 0 45 18 45 44c0 61 -112 142 -151 152c-39 -10 -152 -91 -152 -152c0 -26 19 -44 46 -44c33 0 67 34 106 101z" />
    <glyph glyph-name="udieresis" unicode="&#xfc;" horiz-adv-x="581" 
d="M391 73c-34 -50 -85 -86 -161 -86c-128 0 -181 89 -181 202v236c0 51 26 68 62 68h15c37 0 64 -16 64 -68v-215c0 -65 33 -105 92 -105c47 0 85 26 105 64v256c0 51 26 68 63 68h14c38 0 64 -16 64 -68v-413c0 -5 -24 -16 -53 -16c-35 0 -74 15 -84 77zM395 544
c-46 0 -74 26 -74 72s28 72 71 72c45 0 74 -26 74 -72s-29 -72 -71 -72zM192 544c-45 0 -74 26 -74 72s29 72 71 72c46 0 74 -26 74 -72s-28 -72 -71 -72z" />
    <glyph glyph-name="degree" unicode="&#xb0;" horiz-adv-x="388" 
d="M193 339c-94 0 -160 62 -160 156v8c0 94 68 157 163 157c93 0 160 -62 160 -156v-8c0 -94 -69 -157 -163 -157zM195 415c40 0 71 29 71 78v13c0 48 -32 79 -72 79c-42 0 -72 -29 -72 -79v-13c0 -48 33 -78 73 -78z" />
    <glyph glyph-name="registered" unicode="&#xae;" horiz-adv-x="746" 
d="M323 336h59c37 0 57 17 57 45c0 31 -20 46 -59 46h-57v-91zM373 -13c-197 0 -333 140 -333 336c0 194 139 337 334 337c196 0 333 -140 333 -335s-139 -338 -334 -338zM374 46c160 0 269 115 269 277c0 161 -113 278 -270 278c-161 0 -269 -115 -269 -277
c0 -161 112 -278 270 -278zM451 284l80 -105c4 -6 -23 -34 -54 -34c-17 0 -39 8 -55 35l-61 87h-36v-77c0 -27 -14 -43 -41 -43h-13c-26 0 -40 20 -40 53v248c0 34 18 52 49 52h107c95 0 146 -37 146 -113c0 -53 -29 -90 -82 -103z" />
    <glyph glyph-name="copyright" unicode="&#xa9;" horiz-adv-x="746" 
d="M373 -13c-197 0 -333 140 -333 336c0 194 139 337 334 337c196 0 333 -140 333 -335s-139 -338 -334 -338zM374 46c160 0 269 115 269 277c0 161 -113 278 -270 278c-161 0 -269 -115 -269 -277c0 -161 112 -278 270 -278zM383 140c-108 0 -184 76 -184 182
c0 105 78 182 183 182c58 0 98 -22 116 -41c12 -12 19 -24 18 -41c0 -33 -45 -51 -48 -47c-20 29 -46 43 -83 43c-49 0 -90 -40 -90 -95c0 -57 41 -96 92 -96c39 0 65 16 84 46c2 4 48 -13 48 -48c1 -16 -7 -30 -21 -44c-18 -19 -57 -41 -115 -41z" />
    <glyph glyph-name="trademark" unicode="&#x2122;" horiz-adv-x="690" 
d="M368 331c-23 0 -33 14 -33 39v240c0 27 11 41 36 41h29c23 0 31 -7 39 -24l55 -136l56 136c9 19 18 24 38 24h29c24 0 36 -14 36 -41v-240c0 -25 -9 -39 -34 -39h-12c-23 0 -34 14 -34 39v160l-43 -117c-3 -11 -4 -18 -36 -18c-33 0 -32 7 -36 18l-44 115v-158
c0 -25 -8 -39 -32 -39h-14zM113 573h-62c-25 0 -38 13 -38 37v3c0 23 13 35 38 35h207c26 0 38 -12 38 -35v-3c0 -24 -12 -37 -38 -37h-61v-203c0 -25 -13 -39 -37 -39h-12c-23 0 -35 14 -35 39v203z" />
    <glyph glyph-name="infinity" unicode="&#x221e;" horiz-adv-x="468" 
d="M162 521h-67c-45 0 -68 21 -68 62v4c0 41 23 60 68 60h278c46 0 68 -19 68 -60v-4c0 -41 -22 -62 -68 -62h-64v-395h64c46 0 68 -21 68 -63v-4c0 -40 -22 -59 -68 -59h-278c-45 0 -68 19 -68 59v4c0 42 23 63 68 63h67v395z" />
    <glyph glyph-name="plusminus" unicode="&#xb1;" horiz-adv-x="447" 
d="M310 122h54c45 0 68 -18 68 -60v-5c0 -40 -23 -57 -68 -57h-262c-44 0 -67 17 -67 57v5c0 42 23 60 67 60h71v351c-18 -15 -41 -25 -66 -25c-52 0 -90 34 -90 83s35 72 40 70c17 -14 35 -22 61 -22c43 0 77 30 84 75h43c43 0 65 -23 65 -68v-464z" />
    <glyph glyph-name="lessequal" unicode="&#x2264;" horiz-adv-x="255" 
d="M128 569c-49 0 -79 27 -79 72c0 44 30 71 79 71s78 -26 78 -71s-29 -72 -78 -72zM121 -195c-37 0 -64 16 -64 68v552c0 51 27 68 63 68h15c38 0 63 -16 63 -68v-552c0 -51 -26 -68 -62 -68h-15z" />
    <glyph glyph-name="mu" unicode="&#xb5;" horiz-adv-x="605" 
d="M411 209c0 -5 0 98 0 98c-20 49 -62 79 -121 79c-77 0 -127 -56 -127 -144c0 -84 52 -143 125 -143c62 0 123 41 123 110zM415 420c11 58 49 73 84 73c28 0 53 -12 53 -16v-416c0 -52 -26 -68 -64 -68h-15c-36 0 -62 17 -62 68v18c-31 -56 -86 -92 -158 -92
c-132 0 -226 103 -226 256c0 155 93 256 228 256c74 0 132 -35 160 -79z" />
    <glyph glyph-name="partialdiff" unicode="&#x2202;" horiz-adv-x="605" 
d="M411 318c-22 43 -65 71 -122 71c-76 0 -126 -55 -126 -132c0 -79 48 -131 124 -131c68 0 124 46 124 112v80zM416 427c14 52 49 66 82 66c29 0 54 -12 54 -16v-428c0 -167 -89 -246 -266 -246c-150 0 -225 69 -225 128c0 47 53 71 56 66c32 -46 79 -78 161 -78
c89 0 133 41 133 126v57c-35 -52 -89 -84 -160 -84c-135 0 -224 91 -224 240c0 141 96 241 228 241c73 0 132 -30 161 -72z" />
    <glyph glyph-name="summation" unicode="&#x2211;" horiz-adv-x="606" 
d="M347 266v121c0 44 18 68 59 68h13c42 0 58 -24 58 -68v-117h50c45 0 64 -16 64 -53v-4c0 -39 -19 -55 -64 -55h-50v-97c0 -45 -18 -68 -60 -68h-14c-40 0 -56 23 -56 68v97h-238c-57 0 -85 28 -85 64v19c0 30 12 49 38 97l144 255c25 49 55 62 85 62c42 0 76 -34 73 -40
l-201 -349h184z" />
    <glyph glyph-name="product" unicode="&#x220f;" horiz-adv-x="662" 
d="M463 99c-35 -65 -102 -110 -190 -110c-153 0 -221 77 -221 247v350c0 44 23 68 65 68h18c43 0 65 -23 65 -68c0 0 0 -347 0 -342c0 -96 35 -134 116 -134c62 0 119 40 141 89v387c0 45 22 68 63 68h20c43 0 65 -23 65 -68v-575c0 -5 -25 -16 -54 -16
c-40 0 -83 20 -88 104z" />
    <glyph glyph-name="pi" unicode="&#x3c0;" horiz-adv-x="746" 
d="M373 -13c-197 0 -333 140 -333 336c0 194 139 337 334 337c196 0 333 -140 333 -335s-139 -338 -334 -338zM374 46c160 0 269 115 269 277c0 161 -113 278 -270 278c-161 0 -269 -115 -269 -277c0 -161 112 -278 270 -278zM335 312h53c37 0 57 20 57 53s-21 53 -61 53
h-49v-106zM336 242v-63c0 -27 -14 -43 -40 -43h-14c-25 0 -40 15 -40 43v258c0 33 18 52 49 52h95c97 0 150 -43 150 -123c0 -81 -51 -124 -146 -124h-54z" />
    <glyph glyph-name="integral" unicode="&#x222b;" horiz-adv-x="620" 
d="M237 241c-130 25 -197 119 -197 282v63c0 45 24 68 64 68h19c42 0 64 -23 64 -68v-66c0 -109 41 -163 124 -163c84 0 123 52 123 163v66c0 46 23 68 64 68h19c42 0 63 -22 63 -68v-62c0 -164 -65 -258 -195 -283c0 1 0 -180 0 -180c0 -45 -23 -68 -66 -68h-21
c-40 0 -61 23 -61 68v180z" />
    <glyph glyph-name="Omega" unicode="&#x3a9;" horiz-adv-x="581" 
d="M387 95c-34 -47 -84 -81 -157 -81c-128 0 -181 90 -181 202v209c0 51 26 68 62 68h15c37 0 64 -16 64 -68v-187c0 -66 30 -109 92 -109c46 0 85 27 105 64v187c0 91 46 113 88 113c28 0 53 -12 53 -16v-438c0 -158 -85 -236 -259 -236c-149 0 -218 71 -218 128
c0 44 52 70 56 66c34 -49 69 -78 153 -78c85 0 127 35 127 121v55z" />
    <glyph glyph-name="logicalnot" unicode="&#xac;" horiz-adv-x="722" 
d="M539 236h-127c-46 0 -68 13 -68 53v6c0 42 22 53 68 53h227c41 0 48 -17 48 -59v-9c0 -171 -125 -293 -306 -293c-209 0 -344 138 -344 336c0 197 138 337 342 337c159 0 248 -74 248 -141c0 -53 -69 -76 -74 -71c-37 55 -102 86 -167 86c-115 0 -199 -84 -199 -216
c0 -130 82 -213 194 -213c87 0 151 48 158 131z" />
    <glyph glyph-name="radical" unicode="&#x221a;" horiz-adv-x="724" 
d="M362 347c-18 70 -63 145 -165 145h-6c-95 0 -160 -71 -160 -169v-6c0 -165 215 -237 331 -327c116 90 332 162 332 327v6c0 98 -65 169 -160 169h-6c-102 0 -148 -75 -166 -145z" />
    <glyph glyph-name="Delta" unicode="&#x394;" horiz-adv-x="550" 
d="M155 288h239c-3 68 -46 113 -114 113c-66 0 -116 -47 -125 -113zM155 206c10 -73 65 -116 141 -116c74 0 115 33 138 72c1 2 68 -7 68 -64c0 -52 -75 -111 -211 -111c-159 0 -264 99 -264 253c0 149 107 259 255 259c144 0 243 -101 243 -244v-10c-1 -25 -8 -39 -34 -39
h-336z" />
    <glyph glyph-name="Agrave" unicode="&#xc0;" horiz-adv-x="656" 
d="M236 275h177c1 0 -88 236 -88 236zM444 165h-236l-40 -104c-18 -51 -50 -68 -81 -68c-41 0 -82 32 -77 45l221 571c8 27 29 44 96 44s86 -17 95 -44l226 -570c5 -12 -36 -46 -80 -46c-32 0 -65 17 -85 70zM212 755c-31 19 -49 48 -49 76c0 31 28 55 64 55
c16 0 33 -6 50 -17c66 -41 122 -135 115 -148c-7 -12 -102 -13 -180 34z" />
    <glyph glyph-name="Atilde" unicode="&#xc3;" horiz-adv-x="656" 
d="M236 275h177c1 0 -88 236 -88 236zM444 165h-236l-40 -104c-18 -51 -50 -68 -81 -68c-41 0 -82 32 -77 45l221 571c8 27 29 44 96 44s86 -17 95 -44l226 -570c5 -12 -36 -46 -80 -46c-32 0 -65 17 -85 70zM216 708c-28 0 -47 21 -47 48c0 59 41 103 89 103
c42 0 92 -24 140 -69c11 34 31 65 57 65c29 0 47 -21 47 -48c0 -59 -41 -102 -89 -102c-42 0 -92 23 -140 68c-11 -34 -31 -65 -57 -65z" />
    <glyph glyph-name="Otilde" unicode="&#xd5;" horiz-adv-x="737" 
d="M368 -13c-196 0 -333 138 -333 336c0 197 140 337 334 337c196 0 333 -139 333 -336c0 -198 -138 -337 -334 -337zM369 118c111 0 187 82 187 205c0 122 -77 207 -188 207s-186 -82 -186 -206c0 -122 76 -206 187 -206zM250 708c-28 0 -47 21 -47 48c0 59 41 103 89 103
c42 0 92 -24 140 -69c11 34 31 65 57 65c29 0 47 -21 47 -48c0 -59 -41 -102 -89 -102c-42 0 -92 23 -140 68c-11 -34 -31 -65 -57 -65z" />
    <glyph glyph-name="ydieresis" unicode="&#xff;" horiz-adv-x="531" 
d="M219 -192c-41 0 -79 32 -75 39l81 184c-23 3 -37 11 -46 31l-168 390c-3 8 34 41 77 41c33 0 61 -15 79 -70l106 -279l94 278c17 55 47 71 78 71c40 0 79 -32 76 -39l-222 -577c-21 -53 -49 -69 -80 -69zM374 544c-46 0 -74 26 -74 72s28 72 71 72c45 0 74 -26 74 -72
s-29 -72 -71 -72zM171 544c-45 0 -74 26 -74 72s29 72 71 72c46 0 74 -26 74 -72s-28 -72 -71 -72z" />
    <glyph glyph-name="Ydieresis" unicode="&#x178;" horiz-adv-x="603" 
d="M376 260v-197c0 -44 -22 -67 -65 -67h-20c-41 0 -63 23 -63 67v197l-226 334c-5 8 21 57 94 57c26 0 51 -16 70 -51l136 -222l138 221c22 38 47 52 71 52c66 0 95 -50 90 -57zM408 705c-46 0 -74 26 -74 72s28 72 71 72c45 0 74 -26 74 -72s-29 -72 -71 -72zM205 705
c-45 0 -74 26 -74 72s29 72 71 72c46 0 74 -26 74 -72s-28 -72 -71 -72z" />
    <glyph glyph-name="Euro" unicode="&#x20ac;" horiz-adv-x="631" 
d="M108 353h-35c-35 0 -50 17 -50 40v10c0 22 15 39 50 39h44c30 136 132 218 272 218c134 0 214 -66 214 -130c0 -52 -65 -75 -69 -70c-36 52 -74 80 -145 80c-63 0 -110 -35 -131 -98h159c35 0 50 -17 50 -39v-10c0 -23 -15 -40 -50 -40h-171v-58h171c35 0 50 -17 50 -39
v-10c0 -22 -15 -39 -50 -39h-159c21 -63 70 -100 135 -100c71 0 109 30 142 85c5 6 71 -18 71 -70c0 -57 -69 -135 -214 -135s-247 81 -276 220c1 0 -43 0 -43 0c-35 0 -50 17 -50 39v10c0 22 15 39 50 39h35v58z" />
    <glyph glyph-name="Acircumflex" unicode="&#xc2;" horiz-adv-x="656" 
d="M236 275h177c1 0 -88 236 -88 236zM444 165h-236l-40 -104c-18 -51 -50 -68 -81 -68c-41 0 -82 32 -77 45l221 571c8 27 29 44 96 44s86 -17 95 -44l226 -570c5 -12 -36 -46 -80 -46c-32 0 -65 17 -85 70zM332 806c38 -67 73 -101 106 -101c27 0 45 18 45 44
c0 61 -112 142 -151 152c-39 -10 -152 -91 -152 -152c0 -26 19 -44 46 -44c33 0 67 34 106 101z" />
    <glyph glyph-name="Ecircumflex" unicode="&#xca;" horiz-adv-x="600" 
d="M135 0c-48 0 -77 29 -77 81v484c0 52 29 82 77 82h361c46 0 68 -23 68 -62v-5c0 -41 -22 -62 -68 -62h-290v-128h212c48 0 68 -21 68 -57v-4c0 -39 -21 -60 -68 -60h-212v-141h295c46 0 68 -20 68 -58v-6c0 -41 -22 -64 -68 -64h-366zM315 806c38 -67 73 -101 106 -101
c27 0 45 18 45 44c0 61 -112 142 -151 152c-39 -10 -152 -91 -152 -152c0 -26 19 -44 46 -44c33 0 67 34 106 101z" />
    <glyph glyph-name="Aacute" unicode="&#xc1;" horiz-adv-x="656" 
d="M236 275h177c1 0 -88 236 -88 236zM444 165h-236l-40 -104c-18 -51 -50 -68 -81 -68c-41 0 -82 32 -77 45l221 571c8 27 29 44 96 44s86 -17 95 -44l226 -570c5 -12 -36 -46 -80 -46c-32 0 -65 17 -85 70zM265 721c-7 13 49 107 115 148c17 11 34 17 50 17
c36 0 64 -24 64 -55c0 -28 -18 -57 -49 -76c-78 -47 -172 -46 -180 -34z" />
    <glyph glyph-name="Edieresis" unicode="&#xcb;" horiz-adv-x="600" 
d="M135 0c-48 0 -77 29 -77 81v484c0 52 29 82 77 82h361c46 0 68 -23 68 -62v-5c0 -41 -22 -62 -68 -62h-290v-128h212c48 0 68 -21 68 -57v-4c0 -39 -21 -60 -68 -60h-212v-141h295c46 0 68 -20 68 -58v-6c0 -41 -22 -64 -68 -64h-366zM418 705c-46 0 -74 26 -74 72
s28 72 71 72c45 0 74 -26 74 -72s-29 -72 -71 -72zM215 705c-45 0 -74 26 -74 72s29 72 71 72c46 0 74 -26 74 -72s-28 -72 -71 -72z" />
    <glyph glyph-name="Egrave" unicode="&#xc8;" horiz-adv-x="600" 
d="M135 0c-48 0 -77 29 -77 81v484c0 52 29 82 77 82h361c46 0 68 -23 68 -62v-5c0 -41 -22 -62 -68 -62h-290v-128h212c48 0 68 -21 68 -57v-4c0 -39 -21 -60 -68 -60h-212v-141h295c46 0 68 -20 68 -58v-6c0 -41 -22 -64 -68 -64h-366zM221 755c-31 19 -49 48 -49 76
c0 31 28 55 64 55c16 0 33 -6 50 -17c66 -41 122 -135 115 -148c-7 -12 -102 -13 -180 34z" />
    <glyph glyph-name="Iacute" unicode="&#xcd;" horiz-adv-x="280" 
d="M129 -4c-41 0 -63 23 -63 67v521c0 45 22 67 63 67h20c43 0 65 -22 65 -67v-521c0 -44 -22 -67 -65 -67h-20zM73 721c-7 13 49 107 115 148c17 11 34 17 50 17c36 0 64 -24 64 -55c0 -28 -18 -57 -49 -76c-78 -47 -172 -46 -180 -34z" />
    <glyph glyph-name="Icircumflex" unicode="&#xce;" horiz-adv-x="280" 
d="M129 -4c-41 0 -63 23 -63 67v521c0 45 22 67 63 67h20c43 0 65 -22 65 -67v-521c0 -44 -22 -67 -65 -67h-20zM218 806c38 -67 73 -101 106 -101c27 0 45 18 45 44c0 61 -112 142 -151 152c-39 -10 -152 -91 -152 -152c0 -26 19 -44 46 -44c33 0 67 34 106 101z" />
    <glyph glyph-name="Idieresis" unicode="&#xcf;" horiz-adv-x="280" 
d="M129 -4c-41 0 -63 23 -63 67v521c0 45 22 67 63 67h20c43 0 65 -22 65 -67v-521c0 -44 -22 -67 -65 -67h-20zM343 705c-46 0 -74 26 -74 72s28 72 71 72c45 0 74 -26 74 -72s-29 -72 -71 -72zM140 705c-45 0 -74 26 -74 72s29 72 71 72c46 0 74 -26 74 -72
s-28 -72 -71 -72z" />
    <glyph glyph-name="Igrave" unicode="&#xcc;" horiz-adv-x="280" 
d="M129 -4c-41 0 -63 23 -63 67v521c0 45 22 67 63 67h20c43 0 65 -22 65 -67v-521c0 -44 -22 -67 -65 -67h-20zM115 755c-31 19 -49 48 -49 76c0 31 28 55 64 55c16 0 33 -6 50 -17c66 -41 122 -135 115 -148c-7 -12 -102 -13 -180 34z" />
    <glyph glyph-name="Oacute" unicode="&#xd3;" horiz-adv-x="737" 
d="M368 -13c-196 0 -333 138 -333 336c0 197 140 337 334 337c196 0 333 -139 333 -336c0 -198 -138 -337 -334 -337zM369 118c111 0 187 82 187 205c0 122 -77 207 -188 207s-186 -82 -186 -206c0 -122 76 -206 187 -206zM293 721c-7 13 49 107 115 148c17 11 34 17 50 17
c36 0 64 -24 64 -55c0 -28 -18 -57 -49 -76c-78 -47 -172 -46 -180 -34z" />
    <glyph glyph-name="Ocircumflex" unicode="&#xd4;" horiz-adv-x="737" 
d="M368 -13c-196 0 -333 138 -333 336c0 197 140 337 334 337c196 0 333 -139 333 -336c0 -198 -138 -337 -334 -337zM369 118c111 0 187 82 187 205c0 122 -77 207 -188 207s-186 -82 -186 -206c0 -122 76 -206 187 -206zM369 806c38 -67 73 -101 106 -101
c27 0 45 18 45 44c0 61 -112 142 -151 152c-39 -10 -152 -91 -152 -152c0 -26 19 -44 46 -44c33 0 67 34 106 101z" />
    <glyph glyph-name="apple" unicode="&#xf8ff;" horiz-adv-x="758" 
d="M337 -85l-48 109l-110 -43c-41 -16 -74 18 -59 59l42 111l-108 48c-40 18 -40 64 0 83l108 48l-42 110c-15 42 18 76 59 60l110 -43l48 109c19 39 65 39 84 0l48 -109l110 43c41 15 74 -19 59 -60l-42 -110l108 -48c39 -19 40 -65 0 -83l-108 -48l42 -111
c15 -41 -18 -75 -59 -59l-110 43l-48 -109c-19 -39 -65 -39 -84 0zM379 28l33 74c8 15 24 22 42 17l76 -29l-29 76c-5 18 2 33 16 42l75 32l-75 33c-14 9 -21 24 -16 42l29 76l-76 -29c-18 -5 -34 2 -42 17l-33 74l-33 -74c-8 -15 -24 -22 -41 -17l-76 29l29 -76
c4 -18 -2 -33 -17 -42l-74 -33l74 -32c15 -9 21 -24 17 -42l-29 -76l76 29c17 5 33 -2 41 -17z" />
    <glyph glyph-name="Ograve" unicode="&#xd2;" horiz-adv-x="737" 
d="M368 -13c-196 0 -333 138 -333 336c0 197 140 337 334 337c196 0 333 -139 333 -336c0 -198 -138 -337 -334 -337zM369 118c111 0 187 82 187 205c0 122 -77 207 -188 207s-186 -82 -186 -206c0 -122 76 -206 187 -206zM255 755c-31 19 -49 48 -49 76c0 31 28 55 64 55
c16 0 33 -6 50 -17c66 -41 122 -135 115 -148c-7 -12 -102 -13 -180 34z" />
    <glyph glyph-name="Uacute" unicode="&#xda;" horiz-adv-x="663" 
d="M331 -11c-183 0 -278 96 -278 283v312c0 45 24 67 64 67h19c42 0 64 -22 64 -67v-310c0 -104 44 -157 132 -157c89 0 131 51 131 157v310c0 45 23 67 64 67h20c42 0 63 -22 63 -67v-310c0 -187 -96 -285 -279 -285zM264 716c-7 13 49 107 115 148c17 11 34 17 50 17
c36 0 64 -24 64 -55c0 -28 -18 -57 -49 -76c-78 -47 -172 -46 -180 -34z" />
    <glyph glyph-name="Ucircumflex" unicode="&#xdb;" horiz-adv-x="663" 
d="M331 -11c-183 0 -278 96 -278 283v312c0 45 24 67 64 67h19c42 0 64 -22 64 -67v-310c0 -104 44 -157 132 -157c89 0 131 51 131 157v310c0 45 23 67 64 67h20c42 0 63 -22 63 -67v-310c0 -187 -96 -285 -279 -285zM331 806c38 -67 73 -101 106 -101c27 0 45 18 45 44
c0 61 -112 142 -151 152c-39 -10 -152 -91 -152 -152c0 -26 19 -44 46 -44c33 0 67 34 106 101z" />
    <glyph glyph-name="Ugrave" unicode="&#xd9;" horiz-adv-x="663" 
d="M331 -11c-183 0 -278 96 -278 283v312c0 45 24 67 64 67h19c42 0 64 -22 64 -67v-310c0 -104 44 -157 132 -157c89 0 131 51 131 157v310c0 45 23 67 64 67h20c42 0 63 -22 63 -67v-310c0 -187 -96 -285 -279 -285zM222 750c-31 19 -49 48 -49 76c0 31 28 55 64 55
c16 0 33 -6 50 -17c66 -41 122 -135 115 -148c-7 -12 -102 -13 -180 34z" />
    <glyph glyph-name="nbspace" unicode="&#xa0;" horiz-adv-x="170" 
 />
    </font>
</defs>
</svg>
