<?xml version="1.0" encoding="UTF-8" standalone="no"?>
<svg width="277px" height="9px" viewBox="0 0 277 9" version="1.1" xmlns="http://www.w3.org/2000/svg" xmlns:xlink="http://www.w3.org/1999/xlink">
    <!-- Generator: Sketch 39.1 (31720) - http://www.bohemiancoding.com/sketch -->
    <title>Group 4</title>
    <desc>Created with Sketch.</desc>
    <defs></defs>
    <g id="Main-Pages" stroke="none" stroke-width="1" fill="none" fill-rule="evenodd">
        <g id="Historia" transform="translate(-582.000000, -7753.000000)" stroke-width="2" stroke="#2BBCB6">
            <g id="Group-4" transform="translate(582.000000, 7754.000000)">
                <g id="LINEA-DIVISORA-ARTICULO">
                    <path d="M0,6.34485179 C6.39044465,6.34485179 5.02303864,0.93809613 10.6261984,0.946796797 C16.2293582,0.955497464 15.3841555,6.41585465 22.5661791,6.34485179 C29.7482027,6.27384894 28.7234861,0.715865192 34.5061598,0.63544125 C40.2888335,0.555017307 39.0507739,6.31822808 46.2965805,6.31822808" id="Path-5"></path>
                    <path d="M46.3309332,6.34485179 C52.7213778,6.34485179 51.3539718,0.93809613 56.9571316,0.946796797 C62.5602914,0.955497464 61.7150887,6.41585465 68.8971123,6.34485179 C76.0791359,6.27384894 75.0544193,0.715865192 80.837093,0.63544125 C86.6197667,0.555017307 85.3817071,6.31822808 92.6275136,6.31822808" id="Path-5-Copy"></path>
                    <path d="M91.8038861,6.34485179 C98.1943308,6.34485179 96.8269248,0.93809613 102.430085,0.946796797 C108.033244,0.955497464 107.188042,6.41585465 114.370065,6.34485179 C121.552089,6.27384894 120.527372,0.715865192 126.310046,0.63544125 C132.09272,0.555017307 130.85466,6.31822808 138.100467,6.31822808" id="Path-5-Copy-2"></path>
                </g>
                <g id="LINEA-DIVISORA-ARTICULO" transform="translate(138.000000, 0.000000)">
                    <path d="M0,6.34485179 C6.39044465,6.34485179 5.02303864,0.93809613 10.6261984,0.946796797 C16.2293582,0.955497464 15.3841555,6.41585465 22.5661791,6.34485179 C29.7482027,6.27384894 28.7234861,0.715865192 34.5061598,0.63544125 C40.2888335,0.555017307 39.0507739,6.31822808 46.2965805,6.31822808" id="Path-5"></path>
                    <path d="M46.3309332,6.34485179 C52.7213778,6.34485179 51.3539718,0.93809613 56.9571316,0.946796797 C62.5602914,0.955497464 61.7150887,6.41585465 68.8971123,6.34485179 C76.0791359,6.27384894 75.0544193,0.715865192 80.837093,0.63544125 C86.6197667,0.555017307 85.3817071,6.31822808 92.6275136,6.31822808" id="Path-5-Copy"></path>
                    <path d="M91.8038861,6.34485179 C98.1943308,6.34485179 96.8269248,0.93809613 102.430085,0.946796797 C108.033244,0.955497464 107.188042,6.41585465 114.370065,6.34485179 C121.552089,6.27384894 120.527372,0.715865192 126.310046,0.63544125 C132.09272,0.555017307 130.85466,6.31822808 138.100467,6.31822808" id="Path-5-Copy-2"></path>
                </g>
            </g>
        </g>
    </g>
</svg>