<?xml version="1.0" encoding="UTF-8" standalone="no"?>
<svg width="36px" height="37px" viewBox="0 0 36 37" version="1.1" xmlns="http://www.w3.org/2000/svg" xmlns:xlink="http://www.w3.org/1999/xlink">
    <!-- Generator: Sketch 39.1 (31720) - http://www.bohemiancoding.com/sketch -->
    <title>Page 1</title>
    <desc>Created with Sketch.</desc>
    <defs>
        <polygon id="path-1" points="35.7287386 36.7168831 0 36.7168831 0 0.276626774 35.7287386 0.276626774"></polygon>
        <polygon id="path-3" points="0 37.0326483 35.7288387 37.0326483 35.7288387 0.592326234 0 0.592326234"></polygon>
    </defs>
    <g id="Main-Pages" stroke="none" stroke-width="1" fill="none" fill-rule="evenodd">
        <g id="Colonia" transform="translate(-1052.000000, -584.000000)">
            <g id="Page-1" transform="translate(1052.000000, 584.000000)">
                <g id="Group-3" transform="translate(0.000000, 0.315765)">
                    <mask id="mask-2" fill="white">
                        <use xlink:href="#path-1"></use>
                    </mask>
                    <g id="Clip-2"></g>
                    <path d="M33.5418968,18.4952416 C33.5418968,16.0867325 36.4224774,13.1085195 35.570671,11.0138805 C34.6875097,8.84284675 30.5533161,8.82685714 28.9484129,7.18999481 C27.3435097,5.55431688 27.326671,1.3377974 25.1980258,0.437641558 C23.1437032,-0.431127273 20.2242194,2.50740779 17.8627355,2.50740779 C15.5012516,2.50740779 12.5817677,-0.431127273 10.5280258,0.437049351 C8.39938065,1.33720519 8.38254194,5.55313247 6.77821935,7.18999481 C5.17389677,8.82626494 1.04028387,8.84343896 0.157703226,11.0144727 C-0.694103226,13.1091117 2.18705806,16.0867325 2.18705806,18.4952416 C2.18705806,20.9037506 -0.694103226,23.8813714 0.157122581,25.9760104 C1.03912258,28.1482286 5.17389677,28.1659948 6.77763871,29.8028571 C8.38196129,31.4391273 8.39821935,35.656239 10.5274452,36.5563948 C12.5811871,37.4251636 15.500671,34.4866286 17.8627355,34.4866286 C20.2242194,34.4866286 23.1442839,37.4251636 25.1986065,36.5558026 C27.3278323,35.6556468 27.344671,31.4391273 28.9495742,29.8028571 C30.5538968,28.1659948 34.6880903,28.1488208 35.5712516,25.9771948 C36.4230581,23.8825558 33.5418968,20.9043429 33.5418968,18.4952416" id="Fill-1" fill="#221F20" mask="url(#mask-2)"></path>
                </g>
                <polygon id="Fill-4" fill="#FEFEFE" points="23.6706387 19.208319 19.7994774 19.2071345 19.7994774 9.36404883 15.9288968 9.36404883 15.9288968 19.2071345 12.0577355 19.2065423 17.8641871 25.1351345"></polygon>
                <mask id="mask-4" fill="white">
                    <use xlink:href="#path-3"></use>
                </mask>
                <g id="Clip-7"></g>
                <polygon id="Fill-6" fill="#FEFEFE" mask="url(#mask-4)" points="10.3389677 28.2608665 25.3892903 28.2608665 25.3892903 26.5393184 10.3389677 26.5393184"></polygon>
            </g>
        </g>
    </g>
</svg>