<?xml version="1.0" encoding="UTF-8" standalone="no"?>
<svg width="23px" height="22px" viewBox="0 0 23 22" version="1.1" xmlns="http://www.w3.org/2000/svg" xmlns:xlink="http://www.w3.org/1999/xlink">
    <!-- Generator: Sketch 39.1 (31720) - http://www.bohemiancoding.com/sketch -->
    <title>Group Copy 2</title>
    <desc>Created with Sketch.</desc>
    <defs></defs>
    <g id="Main-Pages" stroke="none" stroke-width="1" fill="none" fill-rule="evenodd">
        <g id="PERFIL" transform="translate(-170.000000, -665.000000)" fill="#9B9B9B">
            <g id="Social" transform="translate(-5.000000, 628.000000)">
                <g id="Facebook-+-Group-Copy-2" transform="translate(157.000000, 37.000000)">
                    <g id="Group-Copy-2" transform="translate(18.000000, 0.000000)">
                        <path d="M20.5159505,5.9982 L16.3872941,5.9982 L16.3872941,2.4 C16.3872941,1.0746 15.3118854,0 13.9848173,0 L11.8376037,0 C10.957096,0 10.147161,0.4812 9.72672755,1.254 L7.05066873,6.1734 C6.7743839,6.0627 6.47317337,6 6.15694737,6 L2.40247678,6 C1.07570898,6 0,7.0746 0,8.4 L0,18.6084 C0,19.9338 1.07570898,21.0084 2.40247678,21.0084 L6.15694737,21.0084 C7.22364706,21.0084 8.12667802,20.3136 8.44050155,19.3524 L12.1997771,20.8395 C12.4814675,20.9511 12.7814768,21.0081 13.0841889,21.0081 L20.5162508,21.0081 C21.8430186,21.0081 22.9187276,19.9335 22.9187276,18.6081 L22.9187276,8.3982 C22.9184272,7.0728 21.8427183,5.9982 20.5159505,5.9982 L20.5159505,5.9982 Z M2.40247678,18.6084 L2.40247678,8.4 L6.13652632,8.4 C6.1359257,8.4246 6.13202167,8.4486 6.13202167,8.4729 L6.13202167,16.8084 C6.13202167,16.92 6.1422322,17.0298 6.15694737,17.1384 L6.15694737,18.6084 L2.40247678,18.6084 L2.40247678,18.6084 Z M20.5159505,18.6084 L13.0838885,18.6084 L8.55942415,16.8183 L8.55942415,8.4267 L11.8376037,2.4 L13.9848173,2.4 L13.9848173,8.3982 L20.5159505,8.3982 L20.5159505,18.6084 L20.5159505,18.6084 Z" id="Shape"></path>
                        <ellipse id="Oval" cx="4.32505882" cy="16.5729" rx="1.20123839" ry="1.2"></ellipse>
                    </g>
                </g>
            </g>
        </g>
    </g>
</svg>