<?xml version="1.0" encoding="UTF-8" standalone="no"?>
<svg width="28px" height="38px" viewBox="0 0 28 38" version="1.1" xmlns="http://www.w3.org/2000/svg" xmlns:xlink="http://www.w3.org/1999/xlink">
    <!-- Generator: Sketch 39.1 (31720) - http://www.bohemiancoding.com/sketch -->
    <title>Shape</title>
    <desc>Created with Sketch.</desc>
    <defs></defs>
    <g id="Symbols" stroke="none" stroke-width="1" fill="none" fill-rule="evenodd">
        <g id="Footer-" transform="translate(-150.000000, -35.000000)" fill="#745FB9">
            <g id="Footer-Copy" transform="translate(0.000000, -6.000000)">
                <g id="Foot-buttons">
                    <path d="M166.532858,49.6495775 L173.702825,56.8196637 C174.692092,57.8089468 176.296325,57.8089468 177.285592,56.8196637 C178.274858,55.8303805 178.274858,54.2261204 177.285592,53.2368373 L165.791225,41.742279 C165.673425,41.6244771 165.542958,41.519342 165.404258,41.4262404 C165.347892,41.3882398 165.285825,41.362906 165.227558,41.3299722 C165.142058,41.2824714 165.059092,41.2311705 164.967892,41.1931699 C164.893792,41.1627694 164.817158,41.1463024 164.741158,41.1228687 C164.659458,41.097535 164.579658,41.0665011 164.494158,41.0494008 C164.364958,41.0240671 164.233858,41.0152003 164.102758,41.0101335 C164.067925,41.0088668 164.035625,41 164.000158,41 C163.960892,41 163.924158,41.0101335 163.885525,41.0114002 C163.758858,41.0171003 163.632192,41.0247004 163.506792,41.0500342 C163.416225,41.0677678 163.332625,41.1000683 163.245858,41.1273021 C163.174925,41.1494692 163.102725,41.1646694 163.033692,41.1931699 C162.935525,41.2337039 162.844325,41.2881715 162.753125,41.340739 C162.701825,41.3698728 162.647358,41.3920399 162.597325,41.4249737 C162.456092,41.5187086 162.324992,41.6257438 162.205925,41.7454458 L150.714725,53.2368373 C150.220092,53.7314789 149.972458,54.380023 149.972458,55.0285671 C149.972458,55.6771113 150.220092,56.3250221 150.714725,56.820297 C151.703992,57.8095802 153.308225,57.8095802 154.296858,56.820297 L161.466192,49.6502108 L161.466192,76.4666244 C161.466192,77.8656811 162.600492,79 163.999525,79 C165.398558,79 166.532858,77.8656811 166.532858,76.4666244 L166.532858,49.6495775 Z" id="Shape"></path>
                </g>
            </g>
        </g>
    </g>
</svg>