<?xml version="1.0" encoding="UTF-8" standalone="no"?>
<svg width="16px" height="16px" viewBox="0 0 16 16" version="1.1" xmlns="http://www.w3.org/2000/svg" xmlns:xlink="http://www.w3.org/1999/xlink">
    <!-- Generator: Sketch 39.1 (31720) - http://www.bohemiancoding.com/sketch -->
    <title>Fill 1</title>
    <desc>Created with Sketch.</desc>
    <defs></defs>
    <g id="Main-Pages" stroke="none" stroke-width="1" fill="none" fill-rule="evenodd">
        <g id="Colonia" transform="translate(-1071.000000, -373.000000)" fill="#FFFFFF">
            <path d="M1078.99968,385.317565 C1077.54954,385.317565 1076.26507,384.607891 1075.46532,383.520701 L1076.03491,382.951667 C1076.68283,383.897418 1077.7697,384.519252 1078.99968,384.519252 C1080.12983,384.519252 1081.13862,383.993817 1081.79742,383.175585 L1082.36477,383.743019 C1081.55878,384.70445 1080.34967,385.317565 1078.99968,385.317565 M1077.00378,378.930584 C1077.55418,378.930584 1078.00161,379.37826 1078.00161,379.928735 C1078.00161,380.47929 1077.55418,380.927446 1077.00378,380.927446 C1076.45331,380.927446 1076.00571,380.47929 1076.00571,379.928735 C1076.00571,379.37826 1076.45331,378.930584 1077.00378,378.930584 M1080.99575,378.930584 C1081.54614,378.930584 1081.9939,379.37826 1081.9939,379.928735 C1081.9939,380.47929 1081.54614,380.927446 1080.99575,380.927446 C1080.44527,380.927446 1079.99784,380.47929 1079.99784,379.928735 C1079.99784,379.37826 1080.44527,378.930584 1080.99575,378.930584 M1078.99968,373 C1074.58869,373 1071,376.588606 1071,380.999605 C1071,385.410844 1074.58869,388.99937 1078.99968,388.99937 C1083.41076,388.99937 1086.99985,385.410844 1086.99985,380.999605 C1086.99985,376.588606 1083.41076,373 1078.99968,373" id="Fill-1"></path>
        </g>
    </g>
</svg>