<?xml version="1.0" encoding="UTF-8" standalone="no"?>
<svg width="15px" height="14px" viewBox="0 0 15 14" version="1.1" xmlns="http://www.w3.org/2000/svg" xmlns:xlink="http://www.w3.org/1999/xlink">
    <!-- Generator: Sketch 39.1 (31720) - http://www.bohemiancoding.com/sketch -->
    <title>Group Copy 2</title>
    <desc>Created with Sketch.</desc>
    <defs></defs>
    <g id="Main-Pages" stroke="none" stroke-width="1" fill="none" fill-rule="evenodd">
        <g id="Colonia" transform="translate(-1071.000000, -461.000000)" fill="#FFFFFF">
            <g id="Group-Copy-2" transform="translate(1071.000000, 461.000000)">
                <path d="M13.3799677,3.91186957 L10.6873657,3.91186957 L10.6873657,1.56521739 C10.6873657,0.700826087 9.98601225,0 9.12053305,0 L7.72017634,0 C7.14593216,0 6.61771369,0.313826087 6.34351797,0.817826087 L4.59826222,4.02613043 C4.41807646,3.95393478 4.22163481,3.91304348 4.01540046,3.91304348 L1.56683268,3.91304348 C0.701549334,3.91304348 0,4.61386957 0,5.47826087 L0,12.135913 C0,13.0003043 0.701549334,13.7011304 1.56683268,13.7011304 L4.01540046,13.7011304 C4.71107417,13.7011304 5.3000074,13.248 5.50467492,12.6211304 L7.95637636,13.5909783 C8.14008749,13.6637609 8.33574573,13.7009348 8.53316664,13.7009348 L13.3801635,13.7009348 C14.2454469,13.7009348 14.9469962,13.0001087 14.9469962,12.1357174 L14.9469962,5.47708696 C14.9468004,4.61269565 14.245251,3.91186957 13.3799677,3.91186957 L13.3799677,3.91186957 Z M1.56683268,12.135913 L1.56683268,5.47826087 L4.00208238,5.47826087 C4.00169067,5.49430435 3.99914457,5.50995652 3.99914457,5.52580435 L3.99914457,10.962 C3.99914457,11.0347826 4.00580361,11.1063913 4.01540046,11.1772174 L4.01540046,12.135913 L1.56683268,12.135913 L1.56683268,12.135913 Z M13.3799677,12.135913 L8.53297079,12.135913 L5.58223314,10.9684565 L5.58223314,5.49567391 L7.72017634,1.56521739 L9.12053305,1.56521739 L9.12053305,5.47708696 L13.3799677,5.47708696 L13.3799677,12.135913 L13.3799677,12.135913 Z" id="Shape"></path>
            </g>
        </g>
    </g>
</svg>