<?xml version="1.0" encoding="UTF-8" standalone="no"?>
<svg width="30px" height="30px" viewBox="0 0 30 30" version="1.1" xmlns="http://www.w3.org/2000/svg" xmlns:xlink="http://www.w3.org/1999/xlink">
    <!-- Generator: Sketch 39.1 (31720) - http://www.bohemiancoding.com/sketch -->
    <title>Page 1</title>
    <desc>Created with Sketch.</desc>
    <defs>
        <polygon id="path-1" points="0.260025 14.8148148 9.4704 14.8148148 9.4704 0.033887238 0.260025 0.033887238 0.260025 14.8148148"></polygon>
        <polygon id="path-3" points="4.1344125 0.0374074074 0.3450375 0.0374074074 0.3450375 3.77948148 4.1344125 3.77948148 4.1344125 0.0374074074"></polygon>
    </defs>
    <g id="Main-Pages" stroke="none" stroke-width="1" fill="none" fill-rule="evenodd">
        <g id="Colonia" transform="translate(-1055.000000, -285.000000)">
            <g id="Page-1" transform="translate(1055.000000, 285.000000)">
                <path d="M14.9902875,10.6258889 C13.9459125,10.6258889 13.0957875,11.4651481 13.0957875,12.4962593 C13.0957875,13.5277407 13.9459125,14.3673704 14.9902875,14.3673704 C16.0357875,14.3673704 16.8851625,13.5277407 16.8851625,12.4962593 C16.8851625,11.4647778 16.0357875,10.6258889 14.9902875,10.6258889" id="Fill-1" fill="#000000"></path>
                <g id="Group-5" transform="translate(10.125000, 15.147926)">
                    <mask id="mask-2" fill="white">
                        <use xlink:href="#path-1"></use>
                    </mask>
                    <g id="Clip-4"></g>
                    <path d="M6.15015,2.84759259 C6.066525,2.54351852 6.236025,2.27981481 6.5544,2.27981481 C6.872025,2.27981481 7.048275,2.52648148 7.130025,2.84759259 L8.312775,6.83203704 L9.4704,6.83240741 L8.46015,3.44425926 C7.436775,0.0168518519 5.548275,0.0338888889 4.8654,0.0338888889 L4.865025,0.0338888889 C4.182525,0.0338888889 2.294775,0.0168518519 1.2714,3.44425926 L0.260025,6.83203704 L1.418025,6.83203704 L2.60115,2.84759259 C2.6829,2.52648148 2.858775,2.27981481 3.176025,2.27981481 C3.494775,2.27981481 3.664275,2.54351852 3.580275,2.84759259 L1.26465,10.5594444 L1.270275,10.5594444 L1.26465,10.5790741 L2.9229,10.5790741 L3.327525,14.815 L4.5429,14.815 L4.372275,10.5790741 L5.360025,10.5790741 L5.18865,14.815 L6.39615,14.815 L6.8019,10.5790741 L8.4669,10.5790741 L8.452275,10.5294444 L8.4669,10.5594444 L6.15015,2.84759259 Z" id="Fill-3" fill="#000000" mask="url(#mask-2)"></path>
                </g>
                <path d="M4.60545,10.6258889 C3.561075,10.6258889 2.710575,11.4655185 2.710575,12.4962593 C2.710575,13.5281111 3.561075,14.3681111 4.60545,14.3681111 C5.649825,14.3681111 6.49995,13.5281111 6.49995,12.4962593 C6.49995,11.4651481 5.649825,10.6258889 4.60545,10.6258889" id="Fill-6" fill="#000000"></path>
                <path d="M4.60545,15.1815556 C3.441825,15.1815556 7.49999999e-05,15.1793333 7.49999999e-05,18.5911852 L7.49999999e-05,21.9793333 L1.1577,21.9793333 L1.1577,17.9963704 C1.1577,17.6822963 1.4157,17.4274815 1.73295,17.4274815 C2.0517,17.4274815 2.30895,17.6826667 2.30895,17.9963704 L2.30895,21.3637778 L2.30895,22.036 L2.30895,29.9626667 L4.02945,29.9626667 L4.02945,23.7119259 C4.02945,23.3971111 4.287825,23.1426667 4.60545,23.1426667 C4.923075,23.1426667 5.1807,23.3978519 5.1807,23.7119259 L5.1807,29.9626667 L6.89445,29.9626667 L6.89445,22.036 L6.89445,21.3637778 L6.89445,17.9963704 C6.89445,17.6822963 7.152075,17.4274815 7.470075,17.4274815 C7.7892,17.4274815 8.04645,17.6826667 8.04645,17.9963704 L8.04645,21.9797037 L9.21045,21.9797037 L9.21045,18.5922963 C9.21045,15.1937778 5.76795,15.1815556 4.60545,15.1815556" id="Fill-8" fill="#000000"></path>
                <path d="M25.374375,10.6258889 C24.330375,10.6258889 23.479875,11.4655185 23.479875,12.4962593 C23.479875,13.5281111 24.330375,14.3681111 25.374375,14.3681111 C26.41875,14.3681111 27.268875,13.5281111 27.268875,12.4962593 C27.268875,11.4651481 26.41875,10.6258889 25.374375,10.6258889" id="Fill-10" fill="#000000"></path>
                <path d="M25.374375,15.1815556 C24.211125,15.1815556 20.769375,15.1793333 20.769375,18.5911852 L20.769375,21.9793333 L21.926625,21.9793333 L21.926625,17.9963704 C21.926625,17.6822963 22.184625,17.4274815 22.50225,17.4274815 C22.821375,17.4274815 23.077875,17.6826667 23.077875,17.9963704 L23.077875,21.3637778 L23.077875,22.036 L23.077875,29.9626667 L24.799125,29.9626667 L24.799125,23.7119259 C24.799125,23.3971111 25.057125,23.1426667 25.374375,23.1426667 C25.69275,23.1426667 25.949625,23.3978519 25.949625,23.7119259 L25.949625,29.9626667 L27.663375,29.9626667 L27.663375,22.036 L27.663375,21.3637778 L27.663375,17.9963704 C27.663375,17.6822963 27.921375,17.4274815 28.239375,17.4274815 C28.5585,17.4274815 28.81575,17.6826667 28.81575,17.9963704 L28.81575,21.9797037 L29.979375,21.9797037 L29.979375,18.5922963 C29.97975,15.1937778 26.5365,15.1815556 25.374375,15.1815556" id="Fill-12" fill="#000000"></path>
                <path d="M9.797775,10.6258889 C8.7534,10.6258889 7.9029,11.4655185 7.9029,12.4962593 C7.9029,13.5281111 8.7534,14.3681111 9.797775,14.3681111 C10.8429,14.3681111 11.69265,13.5281111 11.69265,12.4962593 C11.692275,11.4651481 10.8429,10.6258889 9.797775,10.6258889" id="Fill-14" fill="#000000"></path>
                <path d="M20.1822375,10.6258889 C19.1378625,10.6258889 18.2869875,11.4655185 18.2869875,12.4962593 C18.2869875,13.5281111 19.1378625,14.3681111 20.1822375,14.3681111 C21.2273625,14.3681111 22.0771125,13.5281111 22.0771125,12.4962593 C22.0771125,11.4651481 21.2273625,10.6258889 20.1822375,10.6258889" id="Fill-16" fill="#000000"></path>
                <path d="M14.9899125,5.49803704 C13.9455375,5.49803704 13.0950375,6.33766667 13.0950375,7.36840741 C13.0950375,8.40025926 13.9455375,9.24025926 14.9899125,9.24025926 C16.0350375,9.24025926 16.8844125,8.40025926 16.8844125,7.36840741 C16.8844125,6.3372963 16.0350375,5.49803704 14.9899125,5.49803704" id="Fill-18" fill="#000000"></path>
                <path d="M9.797775,5.49803704 C8.7534,5.49803704 7.9029,6.33766667 7.9029,7.36840741 C7.9029,8.40025926 8.7534,9.24025926 9.797775,9.24025926 C10.8429,9.24025926 11.69265,8.40025926 11.69265,7.36840741 C11.692275,6.3372963 10.8429,5.49803704 9.797775,5.49803704" id="Fill-20" fill="#000000"></path>
                <path d="M20.1822375,5.49803704 C19.1378625,5.49803704 18.2869875,6.33766667 18.2869875,7.36840741 C18.2869875,8.40025926 19.1378625,9.24025926 20.1822375,9.24025926 C21.2273625,9.24025926 22.0771125,8.40025926 22.0771125,7.36840741 C22.0771125,6.3372963 21.2273625,5.49803704 20.1822375,5.49803704" id="Fill-22" fill="#000000"></path>
                <g id="Group-26" transform="translate(12.750000, 0.333111)">
                    <mask id="mask-4" fill="white">
                        <use xlink:href="#path-3"></use>
                    </mask>
                    <g id="Clip-25"></g>
                    <path d="M2.2399125,0.0372592593 C1.1955375,0.0372592593 0.3450375,0.876888889 0.3450375,1.90762963 C0.3450375,2.93948148 1.1955375,3.77948148 2.2399125,3.77948148 C3.2850375,3.77948148 4.1344125,2.93948148 4.1344125,1.90762963 C4.1344125,0.876888889 3.2850375,0.0372592593 2.2399125,0.0372592593" id="Fill-24" fill="#000000" mask="url(#mask-4)"></path>
                </g>
            </g>
        </g>
    </g>
</svg>