<?xml version="1.0" encoding="UTF-8" standalone="no"?>
<svg width="15px" height="14px" viewBox="0 0 15 14" version="1.1" xmlns="http://www.w3.org/2000/svg" xmlns:xlink="http://www.w3.org/1999/xlink">
    <!-- Generator: Sketch 39.1 (31720) - http://www.bohemiancoding.com/sketch -->
    <title>Shape Copy 4</title>
    <desc>Created with Sketch.</desc>
    <defs></defs>
    <g id="Main-Pages" stroke="none" stroke-width="1" fill="none" fill-rule="evenodd">
        <g id="Colonia" transform="translate(-1071.000000, -485.000000)" fill="#FFFFFF">
            <path d="M1071.03012,492.689577 C1071.4096,494.495655 1072.3268,495.999134 1073.6824,497.037523 C1074.90498,497.973871 1076.45483,498.489717 1078.04648,498.489717 C1080.12416,498.489717 1082.09247,497.630032 1083.44719,496.131312 C1084.48648,494.981365 1085.65472,492.920624 1085.31794,489.63486 C1085.29694,489.42972 1085.26625,489.227928 1085.22602,489.030719 C1085.46172,488.716136 1085.63814,488.517164 1085.63973,488.515402 C1085.9975,488.116577 1086.09824,487.549446 1085.89942,487.051929 C1085.70077,486.554411 1085.23696,486.212511 1084.70259,486.169157 C1084.47571,486.150828 1084.24743,486.141488 1084.02408,486.141488 C1083.87677,486.141488 1083.72999,486.145541 1083.58356,486.153472 C1082.72387,485.4131 1081.62584,485 1080.47277,485 C1079.18473,485 1078.01384,485.528006 1077.26018,486.44814 C1076.50475,487.370565 1076.22848,488.620263 1076.47741,489.97676 C1075.76803,489.806515 1075.10328,489.538458 1074.82507,489.40769 C1074.63242,489.316399 1074.42565,489.271635 1074.22013,489.271635 C1073.90892,489.271635 1073.60019,489.374381 1073.3465,489.574058 C1072.92521,489.90556 1072.7285,490.44696 1072.83859,490.971266 C1072.84512,491.001755 1072.85164,491.032244 1072.85835,491.062557 C1072.7128,491.014091 1072.56196,490.990123 1072.41183,490.990123 C1072.10063,490.990123 1071.7919,491.092869 1071.5382,491.292546 C1071.11674,491.623872 1070.92003,492.165096 1071.03012,492.689577 L1071.03012,492.689577 Z M1072.41148,492.399844 C1072.41148,492.399844 1073.93027,493.120125 1075.38678,493.241905 C1074.84712,492.556166 1074.435,491.706351 1074.21977,490.681532 C1074.21977,490.681532 1076.03089,491.540159 1077.59414,491.540159 C1077.72628,491.540159 1077.85665,491.533991 1077.98402,491.520773 C1078.04683,491.06379 1078.02143,490.498069 1077.88047,489.800346 C1077.43148,487.579759 1078.8797,486.410073 1080.47259,486.410073 C1081.40055,486.410073 1082.37703,486.806607 1083.05678,487.623466 C1083.36639,487.57641 1083.68889,487.551561 1084.02373,487.551561 C1084.20826,487.551561 1084.39633,487.559139 1084.58827,487.574648 C1084.58827,487.574648 1084.1504,488.063001 1083.69224,488.760195 C1083.7995,489.06861 1083.87571,489.40769 1083.91382,489.778493 C1084.40779,494.597873 1081.21567,497.079996 1078.04648,497.079996 C1075.55209,497.07982 1073.07181,495.543385 1072.41148,492.399844 L1072.41148,492.399844 Z" id="Shape-Copy-4"></path>
        </g>
    </g>
</svg>