<?xml version="1.0" encoding="UTF-8" standalone="no"?>
<svg width="17px" height="12px" viewBox="0 0 17 12" version="1.1" xmlns="http://www.w3.org/2000/svg" xmlns:xlink="http://www.w3.org/1999/xlink">
    <!-- Generator: Sketch 39.1 (31720) - http://www.bohemiancoding.com/sketch -->
    <title>Page 1</title>
    <desc>Created with Sketch.</desc>
    <defs></defs>
    <g id="Main-Pages" stroke="none" stroke-width="1" fill="none" fill-rule="evenodd">
        <g id="Colonia" transform="translate(-1070.000000, -422.000000)" stroke="#FFFFFF" fill="#FFFFFF">
            <path d="M1071.48544,423 L1071,423.4889 L1071,432.874834 L1071.48544,433.363636 L1085.51456,433.363636 L1086,432.874834 L1086,423.4889 L1085.51456,423 L1071.48544,423 Z M1071.82461,423.4889 L1085.17204,423.4889 L1078.5,430.189284 L1071.82461,423.4889 Z M1071.48544,423.4889 L1071.49944,423.4889 L1071.48544,423.5032 L1071.48544,423.4889 Z M1071.48544,423.84361 L1075.68102,428.061903 L1071.48544,432.534008 L1071.48544,423.84361 Z M1081.3184,428.062636 L1085.51456,423.844148 L1085.51456,432.534057 L1081.3184,428.062636 Z M1076.02874,428.41148 L1078.32864,430.723842 L1078.67136,430.723842 L1080.97078,428.412214 L1085.18447,432.874834 L1071.81549,432.874834 L1076.02874,428.41148 Z" id="Page-1"></path>
        </g>
    </g>
</svg>