<?xml version="1.0" encoding="UTF-8" standalone="no"?>
<svg width="16px" height="16px" viewBox="0 0 16 16" version="1.1" xmlns="http://www.w3.org/2000/svg" xmlns:xlink="http://www.w3.org/1999/xlink">
    <!-- Generator: Sketch 39.1 (31720) - http://www.bohemiancoding.com/sketch -->
    <title>Page 1</title>
    <desc>Created with Sketch.</desc>
    <defs>
        <polygon id="path-1" points="16.0008656 0.0001 0 0.0001 0 16.0167 16.0008656 16.0167"></polygon>
    </defs>
    <g id="Main-Pages" stroke="none" stroke-width="1" fill="none" fill-rule="evenodd">
        <g id="Colonia" transform="translate(-1071.000000, -395.000000)">
            <g id="Page-1" transform="translate(1071.000000, 395.000000)">
                <mask id="mask-2" fill="white">
                    <use xlink:href="#path-1"></use>
                </mask>
                <g id="Clip-2"></g>
                <path d="M2.2119,2.6167 L2.3129,2.5167 C2.8149,2.0127 3.2489,1.5767 3.6509,1.5767 C3.9229,1.5767 4.4279,1.7567 5.2859,2.6157 C6.1449,3.4747 6.3239,3.9787 6.3239,4.2497 C6.3229,4.6557 5.8869,5.0897 5.3799,5.5947 L5.2819,5.6927 L5.0469,6.1947 L5.0539,6.3017 C5.0599,6.3837 5.1999,8.3187 6.4829,9.5997 C7.2969,10.4147 9.2219,10.8627 9.5999,10.9447 L9.7249,10.9707 L10.1099,10.8567 L10.2929,10.7607 L10.3829,10.6707 C10.9019,10.1507 11.3509,9.7017 11.7689,9.7017 C12.0419,9.7017 12.5469,9.8797 13.3969,10.7297 C14.1409,11.4727 14.4829,12.0557 14.4139,12.4627 C14.3519,12.8397 13.9389,13.2517 13.3939,13.7977 C12.5649,14.6267 11.1989,14.6697 10.2709,13.7517 L10.1649,13.6737 C10.0699,13.6167 7.8169,12.2487 5.8249,10.2567 C3.8129,8.2437 2.3429,5.8587 2.2949,5.7877 L2.2129,5.6887 C1.8029,5.2787 1.5759,4.7327 1.5759,4.1517 C1.5759,3.5717 1.8029,3.0267 2.2119,2.6167 M4.7109,11.3717 C6.6829,13.3437 8.8559,14.7197 9.2739,14.9767 C9.9799,15.6477 10.8949,16.0167 11.8569,16.0167 C12.8539,16.0167 13.7949,15.6247 14.5739,14.8457 C15.1889,14.2327 15.8229,13.5987 15.9699,12.7217 C16.1309,11.7587 15.6669,10.7707 14.5119,9.6157 C13.4949,8.5987 12.6229,8.1257 11.7689,8.1257 C10.8089,8.1257 10.1199,8.7157 9.5219,9.3037 C8.7329,9.0937 7.8789,8.7677 7.5969,8.4857 C7.0039,7.8927 6.7659,7.0057 6.6759,6.5287 C7.3049,5.8947 7.8989,5.2187 7.8999,4.2517 C7.9009,3.4007 7.4249,2.5257 6.3999,1.5007 C5.3769,0.4767 4.5039,-0.0003 3.6509,-0.0003 C2.5949,-0.0003 1.8839,0.7137 1.1929,1.4057 L1.0989,1.5007 C0.3909,2.2087 -0.0001,3.1497 -0.0001,4.1517 C-0.0001,5.1207 0.3659,6.0357 1.0319,6.7347 C1.2979,7.1577 2.7559,9.4157 4.7109,11.3717" id="Fill-1" fill="#FFFFFF" mask="url(#mask-2)"></path>
            </g>
        </g>
    </g>
</svg>