<?xml version="1.0" encoding="UTF-8" standalone="no"?>
<svg width="119px" height="29px" viewBox="0 0 119 29" version="1.1" xmlns="http://www.w3.org/2000/svg" xmlns:xlink="http://www.w3.org/1999/xlink">
    <!-- Generator: Sketch 39.1 (31720) - http://www.bohemiancoding.com/sketch -->
    <title>Group</title>
    <desc>Created with Sketch.</desc>
    <defs></defs>
    <g id="Symbols" stroke="none" stroke-width="1" fill="none" fill-rule="evenodd">
        <g id="Menu" transform="translate(-100.000000, -19.000000)" fill="#000000">
            <g id="Group" transform="translate(100.000000, 19.000000)">
                <path d="M75.1578947,20.8043478 C79.3436318,20.8043478 82.7368421,17.4172846 82.7368421,13.2391304 C82.7368421,9.06097624 79.3436318,5.67391304 75.1578947,5.67391304 C70.9721577,5.67391304 67.5789474,9.06097624 67.5789474,13.2391304 C67.5789474,17.4172846 70.9721577,20.8043478 75.1578947,20.8043478 L75.1578947,20.8043478 Z M75.1578947,17.0217391 C73.0650262,17.0217391 71.3684211,15.3282075 71.3684211,13.2391304 C71.3684211,11.1500533 73.0650262,9.45652174 75.1578947,9.45652174 C77.2507633,9.45652174 78.9473684,11.1500533 78.9473684,13.2391304 C78.9473684,15.3282075 77.2507633,17.0217391 75.1578947,17.0217391 L75.1578947,17.0217391 Z" id="Shape"></path>
                <ellipse id="Oval-5-Copy" cx="75.1578947" cy="25.8478261" rx="3.15789474" ry="3.15217391"></ellipse>
                <path d="M1.60673684,20.173913 L5.80294737,20.173913 C11.9722105,20.173913 15.696,16.762 15.696,11.1586957 C15.696,5.5553913 12.0555789,2.22669565 5.94189474,2.22669565 L1.55115789,2.22669565 C0.689684211,2.22669565 0.0227368421,2.86469565 0.0227368421,3.83556522 L0.0227368421,18.5927826 C0.0227368421,19.4526957 0.717473684,20.173913 1.60673684,20.173913 L1.60673684,20.173913 Z M2.85726316,17.7051304 L2.85726316,4.69547826 L5.88631579,4.69547826 C10.2214737,4.69547826 12.8058947,7.10878261 12.8058947,11.1864348 C12.8058947,15.3195652 10.2492632,17.7051304 5.85852632,17.7051304 L2.85726316,17.7051304 Z M19.104,3.97426087 C20.16,3.97426087 20.7435789,3.44721739 20.7435789,2.4486087 C20.7435789,1.45 20.16,0.895217391 19.1317895,0.895217391 C18.0757895,0.895217391 17.464421,1.45 17.464421,2.4486087 C17.464421,3.41947826 18.0757895,3.97426087 19.104,3.97426087 L19.104,3.97426087 Z M18.9650526,20.2848696 L19.2429474,20.2848696 C19.9654737,20.2848696 20.4656842,19.9797391 20.4656842,18.9811304 L20.4656842,8.02417391 C20.4656842,6.99782609 19.9654737,6.69269565 19.2429474,6.69269565 L18.9650526,6.69269565 C18.2425263,6.69269565 17.7145263,7.02556522 17.7145263,8.02417391 L17.7145263,18.9811304 C17.7145263,19.9797391 18.2425263,20.2848696 18.9650526,20.2848696 L18.9650526,20.2848696 Z M27.6530526,20.5067826 C31.0989473,20.5067826 33.2109473,18.8701739 33.2109473,16.3181739 C33.2109473,13.4333043 30.3486315,12.8230435 28.2922105,12.3792174 C26.1246315,11.9076522 24.9574737,11.6302609 24.9574737,10.4097391 C24.9574737,9.30017391 25.9578947,8.57895652 27.8475789,8.57895652 C29.5427368,8.57895652 30.9322105,9.35565217 31.7658947,10.4652174 C31.8214737,10.5484348 32.8774737,10.0491304 32.8774737,9.18921739 C32.8774737,7.94095652 31.1545263,6.49852174 27.736421,6.49852174 C24.4850526,6.49852174 22.4008421,8.1906087 22.4008421,10.6871304 C22.4008421,13.5165217 25.1242105,14.1267826 27.0972631,14.5428696 C29.2926315,15.0144348 30.5431579,15.264087 30.5431579,16.6233043 C30.5431579,17.7328696 29.4871579,18.4263478 27.5974737,18.4263478 C25.4854737,18.4263478 23.9848421,17.5664348 23.0955789,16.4291304 C23.0122105,16.3736522 22.0117894,16.8174783 22.0117894,17.6773913 C22.0117894,18.9533913 23.9292631,20.5067826 27.6530526,20.5067826 L27.6530526,20.5067826 Z M35.8686315,9.07826087 L35.8686315,16.124 C35.8686315,19.0088696 37.1191578,20.5345217 39.8703157,20.5345217 C41.8433684,20.5345217 42.9827368,19.535913 42.9827368,18.5095652 C42.9827368,17.6496522 42.288,17.2613043 42.2046315,17.3445217 C41.7877894,17.8993043 41.176421,18.2876522 40.3149473,18.2876522 C39.0088421,18.2876522 38.536421,17.4832174 38.536421,15.8188696 L38.536421,9.07826087 L41.5654736,9.07826087 C42.4269473,9.07826087 42.760421,8.71765217 42.760421,8.02417391 L42.760421,7.83 C42.760421,7.16426087 42.4547368,6.8313913 41.5932631,6.8313913 L38.5642105,6.8313913 L38.5642105,4.77869565 C38.5642105,3.75234783 38.0917894,3.47495652 37.3692631,3.47495652 L37.0913684,3.47495652 C36.3410526,3.47495652 35.8686315,3.83556522 35.8686315,4.77869565 L35.8686315,6.8313913 L34.896,6.8313913 C34.0345263,6.8313913 33.7010526,7.192 33.7010526,7.85773913 L33.7010526,8.05191304 C33.7010526,8.71765217 34.0345263,9.07826087 34.896,9.07826087 L35.8686315,9.07826087 Z M46.8909473,9.02278261 C46.8631578,7.13652174 46.0016842,6.69269565 45.1679999,6.69269565 C44.6122105,6.69269565 44.1675789,6.9146087 44.1675789,6.99782609 L44.1675789,18.9811304 C44.1675789,19.9797391 44.6677894,20.2848696 45.3903157,20.2848696 L45.6959999,20.2848696 C46.3907368,20.2848696 46.9187368,19.9797391 46.9187368,18.9811304 L46.9187368,14.2932174 C46.9187368,11.2141739 47.7802105,9.106 49.9477894,9.106 C50.6981052,9.106 51.2261052,9.35565217 51.6429473,9.68852174 C51.6985263,9.744 52.4766315,9.32791304 52.4766315,8.27382609 C52.4766315,7.16426087 51.6707368,6.49852174 50.2812631,6.49852174 C48.5861052,6.49852174 47.4745263,7.38617391 46.8909473,9.02278261 L46.8909473,9.02278261 Z M54.9953683,3.97426087 C56.0513683,3.97426087 56.6349473,3.44721739 56.6349473,2.4486087 C56.6349473,1.45 56.0513683,0.895217391 55.0231578,0.895217391 C53.9671578,0.895217391 53.3557894,1.45 53.3557894,2.4486087 C53.3557894,3.41947826 53.9671578,3.97426087 54.9953683,3.97426087 L54.9953683,3.97426087 Z M54.856421,20.2848696 L55.1343157,20.2848696 C55.856842,20.2848696 56.3570526,19.9797391 56.3570526,18.9811304 L56.3570526,8.02417391 C56.3570526,6.99782609 55.856842,6.69269565 55.1343157,6.69269565 L54.856421,6.69269565 C54.1338947,6.69269565 53.6058947,7.02556522 53.6058947,8.02417391 L53.6058947,18.9811304 C53.6058947,19.9797391 54.1338947,20.2848696 54.856421,20.2848696 L54.856421,20.2848696 Z M59.8762104,9.07826087 L59.8762104,16.124 C59.8762104,19.0088696 61.1267368,20.5345217 63.8778946,20.5345217 C65.8509473,20.5345217 66.9903157,19.535913 66.9903157,18.5095652 C66.9903157,17.6496522 66.2955789,17.2613043 66.2122104,17.3445217 C65.7953683,17.8993043 65.1839999,18.2876522 64.3225262,18.2876522 C63.016421,18.2876522 62.5439999,17.4832174 62.5439999,15.8188696 L62.5439999,9.07826087 L65.5730525,9.07826087 C66.4345262,9.07826087 66.7679999,8.71765217 66.7679999,8.02417391 L66.7679999,7.83 C66.7679999,7.16426087 66.4623157,6.8313913 65.600842,6.8313913 L62.5717894,6.8313913 L62.5717894,4.77869565 C62.5717894,3.75234783 62.0993683,3.47495652 61.376842,3.47495652 L61.0989473,3.47495652 C60.3486315,3.47495652 59.8762104,3.83556522 59.8762104,4.77869565 L59.8762104,6.8313913 L58.9035789,6.8313913 C58.0421052,6.8313913 57.7086315,7.192 57.7086315,7.85773913 L57.7086315,8.05191304 C57.7086315,8.71765217 58.0421052,9.07826087 58.9035789,9.07826087 L59.8762104,9.07826087 Z" id="Distrit"></path>
                <path d="M84.4926316,4.77869565 L84.4926316,18.9811304 C84.4926316,19.8410435 84.9094737,20.2848696 85.7153684,20.2848696 L86.1044211,20.2848696 C86.9381053,20.2848696 87.3827368,19.8410435 87.3827368,18.9811304 L87.3827368,4.77869565 L92.3014737,4.77869565 C93.1629474,4.77869565 93.6075789,4.33486957 93.6075789,3.55817391 L93.6075789,3.41947826 C93.6075789,2.64278261 93.1629474,2.22669565 92.3014737,2.22669565 L79.5738947,2.22669565 C78.7124211,2.22669565 78.24,2.64278261 78.24,3.41947826 L78.24,3.55817391 C78.24,4.33486957 78.7124211,4.77869565 79.5738947,4.77869565 L84.4926316,4.77869565 Z M94.1254737,12.3792174 C94.4589474,10.160087 96.1541052,8.57895652 98.3494737,8.57895652 C100.572632,8.57895652 101.989895,10.0768696 102.128842,12.3792174 L94.1254737,12.3792174 Z M94.1254737,14.2377391 L103.962947,14.2377391 C104.602105,14.2377391 104.796632,14.0158261 104.796632,13.4333043 L104.796632,13.2113913 C104.796632,9.21695652 102.24,6.49852174 98.3772631,6.49852174 C94.4311579,6.49852174 91.5410526,9.52208696 91.5410526,13.572 C91.5410526,17.7328696 94.3755789,20.5345217 98.5995789,20.5345217 C102.24,20.5345217 104.296421,18.676 104.296421,17.5109565 C104.296421,16.345913 102.906947,16.0962609 102.851368,16.1517391 C102.156632,17.3445217 100.989474,18.3708696 98.6551579,18.3708696 C96.1263158,18.3708696 94.32,16.6787826 94.1254737,14.2377391 L94.1254737,14.2377391 Z M112.48421,20.5345217 C116.430316,20.5345217 118.208842,18.0934783 118.208842,16.8729565 C118.208842,15.6801739 116.652632,15.486 116.569263,15.6246957 C115.957895,17.0948696 114.790737,18.2321739 112.539789,18.2321739 C110.010947,18.2321739 108.149053,16.2349565 108.149053,13.4887826 C108.149053,10.7703478 110.038737,8.80086957 112.539789,8.80086957 C114.818526,8.80086957 115.957895,9.93817391 116.569263,11.4083478 C116.652632,11.5470435 118.208842,11.3251304 118.208842,10.1878261 C118.208842,8.93956522 116.458105,6.49852174 112.48421,6.49852174 C108.482526,6.49852174 105.536842,9.43886957 105.536842,13.4887826 C105.536842,17.5941739 108.454737,20.5345217 112.48421,20.5345217 L112.48421,20.5345217 Z" id="Tec"></path>
            </g>
        </g>
    </g>
</svg>