<?xml version="1.0" encoding="UTF-8" standalone="no"?>
<svg width="25px" height="24px" viewBox="0 0 25 24" version="1.1" xmlns="http://www.w3.org/2000/svg" xmlns:xlink="http://www.w3.org/1999/xlink">
    <!-- Generator: Sketch 39.1 (31720) - http://www.bohemiancoding.com/sketch -->
    <title>Shape Copy 5</title>
    <desc>Created with Sketch.</desc>
    <defs></defs>
    <g id="Main-Pages" stroke="none" stroke-width="1" fill="none" fill-rule="evenodd">
        <g id="PERFIL" transform="translate(-243.000000, -664.000000)" fill="#9B9B9B">
            <g id="Social" transform="translate(-5.000000, 628.000000)">
                <g id="Medium-+-Shape-Copy-5" transform="translate(236.000000, 36.000000)">
                    <path d="M36.5817554,3.99345 C36.5817554,3.67515 36.4547245,3.37005 36.2297926,3.14475 L33.4336099,0.35145 C32.9648266,-0.11715 32.2035418,-0.11715 31.7347585,0.35145 L31.0566594,1.02885 C30.6194087,0.43515 29.9169845,0.04845 29.1229659,0.04845 L14.8207214,0.04845 C13.4939536,0.04845 12.4182446,1.12305 12.4182446,2.44845 L12.4182446,21.49875 C12.4182446,22.82415 13.4939536,23.89875 14.8207214,23.89875 L29.1229659,23.89875 C30.4497337,23.89875 31.5254427,22.82415 31.5254427,21.49875 L31.5254427,9.54165 L36.2297926,4.84215 C36.4547245,4.61685 36.5817554,4.31175 36.5817554,3.99345 L36.5817554,3.99345 Z M29.1229659,21.49905 L14.8207214,21.49905 L14.8207214,2.44875 L29.1229659,2.44875 L29.1229659,2.96115 L27.2250093,4.85745 C27.0096873,4.65315 26.7198885,4.52625 26.4000588,4.52625 L17.8412353,4.52625 C17.1778514,4.52625 16.6399969,5.06355 16.6399969,5.72625 C16.6399969,6.38895 17.1778514,6.92625 17.8412353,6.92625 L25.1543746,6.92625 L23.352517,8.72625 L17.8412353,8.72625 C17.1778514,8.72625 16.6399969,9.26355 16.6399969,9.92625 C16.6399969,10.58895 17.1778514,11.12625 17.8412353,11.12625 L20.9500402,11.12625 L19.5785263,12.49635 C19.4797245,12.59475 19.3989412,12.70995 19.3397802,12.83625 L19.2508885,13.02615 L17.8415356,13.02615 C17.1781517,13.02615 16.6402972,13.56345 16.6402972,14.22615 C16.6402972,14.88885 17.1781517,15.42615 17.8415356,15.42615 L18.1262291,15.42615 L16.8805449,18.08625 C16.6658235,18.54345 16.7616223,19.08615 17.119291,19.44315 C17.3496285,19.67355 17.6565449,19.79475 17.9688669,19.79475 C18.1409443,19.79475 18.3148235,19.75785 18.4775913,19.68165 L23.7330093,17.22495 C23.8594396,17.16585 23.9747585,17.08515 24.0732601,16.98645 L25.6351703,15.42615 L26.4003591,15.42615 C27.063743,15.42615 27.6015975,14.88885 27.6015975,14.22615 C27.6015975,14.00715 27.5385325,13.80435 27.4358266,13.62765 L29.1232663,11.94165 L29.1232663,21.49905 L29.1229659,21.49905 Z M22.5233622,15.14025 L20.4611362,16.10445 L21.4263313,14.04435 L29.8422074,5.63685 L30.9395387,6.73275 L22.5233622,15.14025 L22.5233622,15.14025 Z M32.6380898,5.03565 L31.5407585,3.93945 L32.5846347,2.89695 L33.6816656,3.99315 L32.6380898,5.03565 L32.6380898,5.03565 Z" id="Shape-Copy-5"></path>
                </g>
            </g>
        </g>
    </g>
</svg>