<?xml version="1.0" encoding="UTF-8" standalone="no"?>
<svg width="20px" height="20px" viewBox="0 0 20 20" version="1.1" xmlns="http://www.w3.org/2000/svg" xmlns:xlink="http://www.w3.org/1999/xlink">
    <!-- Generator: Sketch 39.1 (31720) - http://www.bohemiancoding.com/sketch -->
    <title>Group</title>
    <desc>Created with Sketch.</desc>
    <defs></defs>
    <g id="Symbols" stroke="none" stroke-width="1" fill="none" fill-rule="evenodd">
        <g id="Menu" transform="translate(-279.000000, -20.000000)" stroke="#EE135D" fill="#EE135D">
            <g id="Group" transform="translate(280.000000, 21.000000)">
                <path d="M12.6306053,2.19160526 C11.2367895,0.7975 9.383,0.0298157895 7.41168421,0.0298157895 C5.44036842,0.0298157895 3.586,0.797789474 2.19218421,2.19189474 C0.798078947,3.586 0.0301052632,5.43978947 0.0301052632,7.41139474 C0.0301052632,9.383 0.797789474,11.2367895 2.19218421,12.6306053 C3.586,14.0247105 5.43978947,14.7929737 7.41168421,14.7929737 C9.38328947,14.7929737 11.2367895,14.0252895 12.6306053,12.6308947 C15.5085526,9.75265789 15.5085526,5.06984211 12.6306053,2.19160526 L12.6306053,2.19160526 Z M10.9936316,10.9933421 C10.0366316,11.9500526 8.76468421,12.4768947 7.41168421,12.4768947 C6.05839474,12.4768947 4.78644737,11.9500526 3.82944737,10.9930526 C2.87244737,10.0363421 2.34589474,8.76439474 2.34589474,7.41110526 C2.34589474,6.05781579 2.87273684,4.78586842 3.82944737,3.82886842 C4.78644737,2.87215789 6.05839474,2.34531579 7.41168421,2.34531579 C8.76468421,2.34531579 10.0366316,2.87215789 10.9936316,3.82886842 C12.9684211,5.80423684 12.9684211,9.01826316 10.9936316,10.9933421 L10.9936316,10.9933421 Z" id="Shape"></path>
                <path d="M13.8824211,12.2451579 C13.4305526,11.793 12.6967368,11.793 12.2451579,12.2451579 C11.793,12.6973158 11.793,13.4305526 12.2451579,13.8824211 L15.9199045,17.5520069 C16.145694,17.7780858 16.4424045,17.89127 16.7385361,17.89127 C17.0346676,17.89127 17.3313782,17.7780858 17.5571676,17.5520069 C18.009615,17.1001384 18.009615,16.3666121 17.5571676,15.9147437 L13.8824211,12.2451579 Z" id="Shape"></path>
            </g>
        </g>
    </g>
</svg>