<?xml version="1.0" encoding="UTF-8" standalone="no"?>
<svg width="26px" height="23px" viewBox="0 0 26 23" version="1.1" xmlns="http://www.w3.org/2000/svg" xmlns:xlink="http://www.w3.org/1999/xlink">
    <!-- Generator: Sketch 39.1 (31720) - http://www.bohemiancoding.com/sketch -->
    <title>Shape Copy 4</title>
    <desc>Created with Sketch.</desc>
    <defs></defs>
    <g id="Main-Pages" stroke="none" stroke-width="1" fill="none" fill-rule="evenodd">
        <g id="PERFIL" transform="translate(-45.000000, -665.000000)" fill="#9B9B9B">
            <g id="Social" transform="translate(-5.000000, 628.000000)">
                <g id="Twitter-+-Shape-Copy-4" transform="translate(42.000000, 37.000000)">
                    <path d="M8.28437693,13.0896 C8.93034287,16.164 10.4916525,18.7233 12.7992314,20.4909 C14.8803769,22.0848 17.5185967,22.9629 20.2279899,22.9629 C23.7647361,22.9629 27.1152902,21.4995 29.4213676,18.9483 C31.1904915,16.9908 33.1791416,13.4829 32.6058506,7.8897 C32.5701138,7.5405 32.5178599,7.197 32.4493893,6.8613 C32.8506029,6.3258 33.1509125,5.9871 33.1536153,5.9841 C33.7626432,5.3052 33.93412,4.3398 33.595671,3.4929 C33.2575224,2.646 32.4680085,2.064 31.5583707,1.9902 C31.1721726,1.959 30.783572,1.9431 30.40338,1.9431 C30.1526215,1.9431 29.9027639,1.95 29.653507,1.9635 C28.1900983,0.7032 26.3209714,0 24.3581478,0 C22.1655875,0 20.1724327,0.8988 18.8895101,2.4651 C17.6035844,4.0353 17.1332995,6.1626 17.5570364,8.4717 C16.3494915,8.1819 15.2179249,7.7256 14.7443367,7.503 C14.4163986,7.3476 14.0644357,7.2714 13.7145751,7.2714 C13.1848289,7.2714 12.6592871,7.4463 12.2274419,7.7862 C11.5103026,8.3505 11.1754574,9.2721 11.3628506,10.1646 C11.3739621,10.2165 11.3850735,10.2684 11.3964853,10.32 C11.1487299,10.2375 10.8919652,10.1967 10.6364017,10.1967 C10.1066556,10.1967 9.58111377,10.3716 9.14926857,10.7115 C8.43182894,11.2755 8.09698374,12.1968 8.28437693,13.0896 L8.28437693,13.0896 Z M10.6358011,12.5964 C10.6358011,12.5964 13.2211664,13.8225 15.7005224,14.0298 C14.7818754,12.8625 14.0803522,11.4159 13.7139744,9.6714 C13.7139744,9.6714 16.7969528,11.133 19.4579961,11.133 C19.682928,11.133 19.9048568,11.1225 20.1216803,11.1 C20.2285905,10.3221 20.185346,9.3591 19.9453986,8.1714 C19.1811107,4.3914 21.6463522,2.4003 24.3578475,2.4003 C25.937476,2.4003 27.5996896,3.0753 28.7567825,4.4658 C29.2838258,4.3857 29.8327918,4.3434 30.4027794,4.3434 C30.7169032,4.3434 31.0370333,4.3563 31.3637701,4.3827 C31.3637701,4.3827 30.6184017,5.214 29.8384977,6.4008 C30.0210859,6.9258 30.1508196,7.503 30.2156865,8.1342 C31.0565534,16.338 25.6227515,20.5632 20.2279899,20.5632 C15.9819125,20.5629 11.7598599,17.9475 10.6358011,12.5964 L10.6358011,12.5964 Z" id="Shape-Copy-4"></path>
                </g>
            </g>
        </g>
    </g>
</svg>