<?xml version="1.0" encoding="UTF-8" standalone="no"?>
<svg width="25px" height="24px" viewBox="0 0 25 24" version="1.1" xmlns="http://www.w3.org/2000/svg" xmlns:xlink="http://www.w3.org/1999/xlink">
    <!-- Generator: Sketch 39.1 (31720) - http://www.bohemiancoding.com/sketch -->
    <title>Shape Copy 6</title>
    <desc>Created with Sketch.</desc>
    <defs></defs>
    <g id="Main-Pages" stroke="none" stroke-width="1" fill="none" fill-rule="evenodd">
        <g id="PERFIL" transform="translate(-103.000000, -664.000000)" fill="#9B9B9B">
            <g id="Social" transform="translate(-5.000000, 628.000000)">
                <g id="Web-+-Shape-Copy-6" transform="translate(104.000000, 36.000000)">
                    <path d="M16.69513,0.0003 C16.6927276,0.0003 16.6903251,1.77635684e-15 16.6879226,1.77635684e-15 C16.6852198,1.77635684e-15 16.6828173,0.0003 16.6807152,0.0003 C10.1706037,0.0045 4.8758452,5.2962 4.8758452,11.8002 C4.8758452,18.3066 10.174808,23.6001 16.6879226,23.6001 C23.2010372,23.6001 28.5,18.3066 28.5,11.8002 C28.5,5.2962 23.2052415,0.0045 16.69513,0.0003 L16.69513,0.0003 Z M26.3401734,10.7502 L23.0689009,10.7502 C23.0292601,9.8847 22.9424706,9.048 22.8106347,8.2503 L25.7215356,8.2503 C26.0329567,9.039 26.2452755,9.8769 26.3401734,10.7502 L26.3401734,10.7502 Z M20.9664334,10.7502 L17.7390062,10.7502 L17.7390062,8.2503 L20.6790372,8.2503 C20.8228854,9.0288 20.9225882,9.8646 20.9664334,10.7502 L20.9664334,10.7502 Z M17.7390062,6.1503 L17.7390062,2.4402 C18.6552508,3.0213 19.5315542,4.3245 20.1435851,6.1503 L17.7390062,6.1503 L17.7390062,6.1503 Z M15.636839,2.4402 L15.636839,6.1503 L13.2319598,6.1503 C13.844291,4.3245 14.7208947,3.021 15.636839,2.4402 L15.636839,2.4402 Z M15.636839,8.2503 L15.636839,10.7502 L12.4091115,10.7502 C12.4529567,9.8646 12.5529598,9.0288 12.6962074,8.2503 L15.636839,8.2503 L15.636839,8.2503 Z M10.3063437,10.7502 L7.03567183,10.7502 C7.13026935,9.8769 7.34258824,9.039 7.6543096,8.2503 L10.5649102,8.2503 C10.4330743,9.048 10.3462848,9.8847 10.3063437,10.7502 L10.3063437,10.7502 Z M7.03567183,12.8502 L10.3063437,12.8502 C10.344483,13.68 10.4264675,14.4825 10.550195,15.2502 L7.61526935,15.2502 C7.32456966,14.4909 7.12636533,13.6866 7.03567183,12.8502 L7.03567183,12.8502 Z M12.4091115,12.8502 L15.636839,12.8502 L15.636839,15.2502 L12.6778885,15.2502 C12.5439505,14.5002 12.4514551,13.6977 12.4091115,12.8502 L12.4091115,12.8502 Z M15.636839,17.3502 L15.636839,21.1599 C14.7043777,20.5686 13.8121579,19.2285 13.1986254,17.3502 L15.636839,17.3502 L15.636839,17.3502 Z M17.7390062,21.1599 L17.7390062,17.3502 L20.1769195,17.3502 C19.5636873,19.2285 18.6717678,20.5686 17.7390062,21.1599 L17.7390062,21.1599 Z M17.7390062,15.2502 L17.7390062,12.8502 L20.9664334,12.8502 C20.9240898,13.6977 20.8315944,14.5002 20.6976563,15.2502 L17.7390062,15.2502 L17.7390062,15.2502 Z M23.0689009,12.8502 L26.3401734,12.8502 C26.2494799,13.6866 26.0512755,14.4909 25.7608762,15.2502 L22.8259505,15.2502 C22.9487771,14.4825 23.0307616,13.68 23.0689009,12.8502 L23.0689009,12.8502 Z M24.5731517,6.1503 L22.3376471,6.1503 C22.0118111,5.0268 21.5892755,4.0194 21.0904613,3.159 C22.4763901,3.8667 23.6704211,4.8966 24.5731517,6.1503 L24.5731517,6.1503 Z M12.2853839,3.159 C11.7865697,4.0194 11.3643344,5.0268 11.0381981,6.1503 L8.80299381,6.1503 C9.70542415,4.8966 10.8991548,3.8667 12.2853839,3.159 L12.2853839,3.159 Z M8.73152012,17.3502 L11.01087,17.3502 C11.3406099,18.5133 11.7721548,19.5558 12.2853839,20.4414 C10.8628173,19.7151 9.64205882,18.6492 8.73152012,17.3502 L8.73152012,17.3502 Z M21.090161,20.4417 C21.6033901,19.5561 22.034935,18.5133 22.3646749,17.3502 L24.6443251,17.3502 C23.7334861,18.6492 22.5130279,19.7151 21.090161,20.4417 L21.090161,20.4417 Z" id="Shape-Copy-6"></path>
                </g>
            </g>
        </g>
    </g>
</svg>